<?xml version="1.0" encoding="UTF-8"?>
<svg width="213.97mm" height="245.92mm" version="1.1" viewBox="0 0 758.1445 871.37931" xmlns="http://www.w3.org/2000/svg">
 <g transform="translate(109.07 -247.24)">
  <path d="m278.51 443.11c-23.418-36.015-46.696-113.5-14.658-141.47 29.841-26.05 62.821-30.961 95.764-14.26 19.756 10.015 32.39 11.821 50.691 7.2469 13.213-3.3026 13.707-3.6182 27.728-17.698 17.514-17.587 26.962-23.862 41.636-27.652 13.059-3.3723 21.147-2.647 32.081 2.8773 4.2774 2.161 8.626 3.7099 9.6633 3.442 1.0373-0.26788 2.4688 0.0716 3.1807 0.75453 1.8357 1.7605-4.0709 2.5159-9.341 1.1946-6.3932-1.6028-28.169 4.4968-37.262 10.437-4.2784 2.7952-12.667 9.3267-18.642 14.515-17.15 14.891-30.816 23.946-42.991 28.489-10.027 3.7408-10.778 4.3305-6.8442 5.367 11.974 3.1544 27.41 1.3129 71.573-8.5387 60.889-13.583 78.545-13.934 101.33-2.0128 18.159 9.4995 22.639 18.696 30.274 62.145 4.1109 23.392 6.1081 25.894 18.179 22.777 5.5321-1.4286 8.1336-3.5351 12.458-10.088 6.1589-9.3317 7.1796-8.9195 3.9208 1.5836-2.1909 7.061-11.725 16.675-18.308 18.46-6.2043 1.6832-14.801-1.7442-18.708-7.4584-2.1311-3.117-4.3144-5.5522-4.8519-5.4113-1.3867 0.36361-7.5676 18.57-9.5426 28.11-3.697 17.858 2.5012 33.822 13.915 35.838 6.2344 1.1011 6.4947 3.2438 0.44117 3.6308-7.3808 0.47175-18.536-7.0982-31.183-21.161-29.275-32.552-65.381-38.821-106.72-18.528-15.358 7.5388-20.409 11.603-11.749 9.4525 9.2422-2.2944 23.462 0.1629 45.924 7.9358 24.218 8.3807 32.276 9.8634 41.661 7.6659l6.776-1.5864-4.9034 3.0837c-6.3215 3.9755-16.618 5.2618-37.253 4.6538-17.12-0.50448-40.006 3.8086-41.236 7.771-0.35253 1.136 0.61662 1.7407 2.1554 1.3433 1.5378-0.39712 6.934 0.0594 11.991 1.0147 9.5208 1.7984 17.995 8.1441 19.717 14.765 1.0867 4.2082-2.9237 14.786-5.9078 15.556-1.0604 0.27383-0.97997-1.3104 0.1787-3.5206 3.489-6.6555 0.096-15.124-7.7775-19.412-17.329-9.4362-43.734-3.2297-81.463 19.148-12.767 7.5725-19.704 17.204-31.699 17.038-16.471-0.22878-45.616-5.4123-60.859-12.693-20.391-9.7402-25.942-24.197-39.343-44.806zm322.05-94.904c-4.1101-17.186-21.383-32.287-42.186-36.881-14.288-3.1554-29.294-0.18632-46.438 9.1885-14.921 8.1593-21.412 14.009-8.9997 8.1104 11.86-5.636 36.985-11.55 47.468-11.173 19.982 0.71884 38.794 16.009 47.903 38.936 3.2916 8.2849 4.1358 9.3879 4.2494 5.5524 0.0781-2.6326-0.821-8.8126-1.9977-13.734zm-165.51-56.829c7.1122-4.8303 20.187-13.794 29.055-19.92 15.105-10.434 17.144-11.348 32.276-14.468 14.603-3.0107 15.753-3.499 11.985-5.0901-20.069-8.4747-42.323 0.49956-65.623 26.464-11.13 12.403-16.044 16.388-26.42 21.423l-6.7532 3.2776 6.2746-1.4526c3.4511-0.79904 12.094-5.4047 19.206-10.235zm-76.504-2.9396c-9.9854-6.5781-39.204-9.3623-53.825-5.1289-4.5256 1.3104-2.67 1.5818 6.9108 1.0109 7.6353-0.45498 20.248 0.82542 30.242 3.0701 19.649 4.4133 22.006 4.5615 16.673 1.0479zm259.77 163.89c0.33666-0.38262 1.9114-2.2855 3.4996-4.2286 2.671-3.268 2.7646-3.2518 1.248 0.21533-0.90187 2.0616-2.4766 3.9645-3.4996 4.2286-1.0229 0.26415-1.5845 0.16724-1.248-0.21534z" fill="#de8787"/>
  <path d="m164.39 827.28c2.715 2.8007 7.5201 20.213 30.839 43.588 24.603 24.662 65.708 34.234 65.708 34.234 0.36334 27.033 20.211 13.14 26.447 8.6059 7.5185-5.4655 1.7337-23.813-0.82915-27.873 0 0-18.977-36.497-29.831-53.944-17.861-28.711-40.153-58.31-40.153-58.31z" stroke="#000" stroke-width=".13453"/>
  <g transform="matrix(.66235 -.3762 .3762 .66235 1165.8 278.02)" stroke="#000" stroke-width=".17661">
   <path d="m-1442.7 116.06c-41.578-33.068-55.674-42.475-109.37-39.818-43.128 0.85461-115.24 28.078-161.6 33.387-7.9884-1.0373-35.663 27.668-21.216 26.852 2.4871 1e-3 4.975 0.0102 7.4603-0.0607 13.374-0.40196 26.758-0.5097 40.13-0.84977 18.172-0.37289 39.263-1.054 59.048 0.85945 6.9381 0.45114 13.879 0.88132 20.813 1.406 12.744 1.0131 25.467 2.3077 38.178 3.679 12.31 1.2496 24.577 2.8755 36.897 4.0296 6.5521 0.61548 13.118 1.0589 19.653 1.8488 7.0153 0.87074 13.988 2.1069 20.833 3.8896 6.2381 1.6174 12.439 3.3691 18.69 4.9222 6.5128 1.616 30.551 3.5691 45.427 0.72906 4.7008-0.89749 7.0986-4.1769 13.261-5.5029z"/>
   <path d="m-1708.9 110.06c-7.9647-1.206-12.836-5.1458-20.165-11.923-6.068-5.6111-10.138-8.6495-14.644-9.1221-18.091 3.5302-23.572 19.172-38.875 28.145-12.864 7.5433-32.142 8.5043-44.224 15.674-7.3508 4.3686-7.4731 4.6064-10.354 7.8369-2.1399 2.3994-7.1876 5.744-4.9062 8.3037 3.8178 4.2836 33.721-0.87352 79.762-9.993 5.9023-1.1692 17.165-2.0144 31.626-2.5245 2.4863 0.0541 4.9735 0.11537 7.4598 0.0971 13.38-0.119 60.78-30.822 14.319-26.495z"/>
  </g>
  <path d="m234.83 504.6c-0.52933 6e-3 -1.0321 0.19916-1.5012 0.59511-15.139 5.0585-29.662 12.341-43.893 19.753-11.383 7.3383-25.095 8.3835-37.161 13.937-12.649 2.6984-24.379 10.818-37.26 10.48-22.394 3.5843-45.044 6.2344-67.131 11.735-10.406 2.9302-21.334 3.2002-31.892 4.8501-1.1537-0.0103-2.2859 0.0906-3.3802 0.35111-23.705 5.6433-31.81 5.2678-52.256-2.4191-25.3-9.5118-43.354-10.269-40.531-1.699 0.91088 2.7647-2.2707 5.5443-7.0713 6.1772-6.5116 0.85868-7.4251 2.464-3.5959 6.32 2.823 2.8428 10.815 4.0624 17.761 2.7107 6.946-1.3518 13.839-0.32238 15.318 2.2882 1.4789 2.6105-0.27491 5.067-3.8964 5.4586-3.6217 0.39158-7.051 2.6602-7.6218 5.0405-0.58265 2.4305 4.9159 3.5612 12.543 2.5798 7.4697-0.96145 20.363-0.12192 28.653 1.8656 8.2899 1.9876 19.231 1.474 24.313-1.1411 3.3288-1.7126 9.2129-3.2988 15.883-4.554 1.4703 0.60073 2.9685 0.69402 4.3592 0.0461 26.576-2.456 53.073 3.2752 79.621 1.4967 21.17-0.94371 40.369-10.518 60.906-14.58 26.012-6.1308 50.377-18.988 77.041-22.071 9.5597 2.38 15.273 11.861 20.156 19.823 2.5453-27.268-11.423-69.137-19.363-69.044z"/>
  <path d="m126.14 759.47c-1.4344 3.6272-15.324 15.175-27.025 46.05-12.345 32.575-4.1441 73.976-4.1441 73.976-40.25 4.1837-52.934 6.5838-80.723 36.661-23.004 23.463-47.714 76.726-70.101 104.34-4.8985 3.6956-9.6385 4.2502-17.232 4.6328-13.702 0.69-15.697 2.7195-19.436 19.765-2.2915 10.447-6.816 28.585-10.054 40.308-3.2381 11.722-6.1044 24.002-6.3717 27.287-0.26737 3.2856 0.37865 6.0138 1.4345 6.0628 2.1502 0.1 19.417-23.635 38.969-53.567 2.5065-3.8373 8.0442-10.421 15.468-18.569 1.3536-1.3254 2.7115-2.6474 4.0257-4.0112 7.0607-7.3505 14.283-14.546 21.376-21.862 9.6861-9.8933 20.795-21.51 32.577-31.02 4.0146-3.4543 8.0194-6.9215 12.071-10.334 7.4722-6.2444 15.083-12.325 22.729-18.357 7.3627-5.8849 14.902-11.542 22.219-17.483 3.8922-3.1591 7.7002-6.4192 11.676-9.4745 4.2803-3.2672 8.7325-6.3133 13.406-8.9933 4.2557-2.4466 8.5627-4.8004 12.791-7.2892 4.4043-2.5939 9.0251-4.8663 13.061-8.0362 3.772-2.9428 7.2495-6.3459 9.8943-10.353l89.232-140.76z" stroke="#000" stroke-width=".13453"/>
  <path d="m304.16 280.43c-8.1653-3e-3 -63.005 37.961-75.629 78.111s16.969 82.486 23.953 89.254c11.482 11.129 20.452 15.586 30.774 15.293 14.522-0.4129 14.542-0.37878 6.201 11.093-4.602 6.3294-11.309 11.577-14.903 11.66-10.549 0.24304-44.981 20.708-56.69 33.693-5.941 6.5888-19.332 28.151-29.757 47.918-19.953 37.833-36.476 56.092-72.915 80.571-41.173 27.659-52.206 74.035-32.664 137.31 23.381 1.4941 22.15 15.833 28.785 36.152 10.137-6.6419 6.3805-19.106 9.7774-13.745 2.2637 3.5724 4.1416 8.1134 4.1895 10.09 0.0404 1.9766 2.7683 3.6317 6.0626 3.6748l112.7-10.727c-10.866-25.606-21.999-51.084-30.212-68.773-9.2871-20.001-10.791-29.136-8.4817-51.512 1.7083-16.551 7.2241-23.953 8.6097-27.201l12.024-28.18c2.5877-6.0646 35.628-29.322 45.964-29.322 5.2313 0 17.738-4.1953 27.794-9.3223l18.285-9.3208 35.198 26.491c19.794 14.898 38.973 25.792 43.825 24.895 3.934-0.72771 11.68-11.414 22.656-31.133 0.31734-0.57013 3.0696-5.6734 3.7982-7.1666s3.9175-7.191 7.0862-12.662c5.5049-9.5059 8.5256-15.124 21.346-39.695 3.1319-6.0019 7.1203-13.421 8.8641-16.487 3.1335-5.5104 3.2071-5.5944 6.3021-7.1636 5.2239-2.6485 7.8291-3.2417 17.114-3.8979 4.9004-0.34636 11.089-0.87878 13.753-1.1843 2.6639-0.30543 9.157-0.52425 14.428-0.48501 17.191 0.12791 31.591-3.2943 30.725-7.3019-0.42534-1.9681-2.9606-2.9504-5.8544-2.2674-1.4916 0.35216-2.9964 0.85202-3.343 1.1099-0.34659 0.25777-3.9908 0.45764-8.0978 0.44485-7.7192-0.0242-15.974-1.8675-16.867-1.4699-0.66956 0.29825-10.55-0.95063-14.711-1.4791 2.1939-0.76194 11.266-1.5113 11.987-1.9428 1.591-0.95256 1.2873-2.8263-0.79449-4.9081-1.0081-1.0081-2.4682-1.2796-6.375-1.1872-2.7873 0.0658-6.128 0.46159-7.4239 0.87927-3.1592 1.0183-5.4404 0.94082-9.6541-0.32582-4.3248-1.3001-11.573-1.8457-14.049-1.0578-7.6864 2.4465-17.506 10.207-21.864 17.28-3.5868 5.8213-7.4562 11.351-11.456 16.371-1.9704 2.473-6.4408 8.3523-9.9352 13.064-8.6976 11.728-12.371 15.932-19.359 22.157 0 0-10.25 10.546-11.628 12.56-7.1252 10.414-7.4859 10.219-41.479-22.474-42.398-40.778-45.345-48.324-26.31-67.36 12.068-12.068 18.105-14.341 38.088-14.341 22.304 0 24.129-0.94622 30.045-15.574 3.4645-8.5654 8.4386-17.025 11.054-18.801 3.0581-2.0762 2.731-5.6711-0.91942-10.069-8.4624-10.197-8.1104-26.963 1.1456-54.445 8.0585-23.926 8.0153-25.153-1.5339-43.871-12.504-24.509-28.772-41.675-59.19-50.709-14.859-4.4127-27.739-2.5037-40.441-2.5084z"/>
  <path d="m274.22 484.17c-4.2132 0.32897-8.169 0.9281-7.7542 6.1132-5.3314 20.592-10.445 42.017-20.028 61.05-6.67 9.3872-14.396 18.069-21.888 26.832-9.6688 10.056-19.688 22.211-34.295 24.523-12.472 2.2837-27.427 1.7234-36.598 12.072-13.254 13.73-28.912 25.24-44.974 35.391-27.759 8.9484-47.95 31.74-64.828 54.415-11.204 18.908-26.678 36.446-47.934 43.868-16.585 6.211-34.564 7.1268-52.095 6.4822 13.417 8.7099 24.482 20.378 35.584 31.698 13.978 9.6644 31.86 9.0098 48.05 7.7483 8.5976 12.784 24.307 18.14 38.753 20.966 7.1242 1.0442 14.351-0.16598 21.248-1.9743 6.2509 10.743 18.975 14.278 30.131 17.432 14.442 3.4571 29.438 6.3695 44.33 4.822 2.1883-0.38265 4.0318-1.7802 5.8618 0.11455 11.086 5.2799 23.98 4.6942 35.279 0.41955 8.2884-3.2336 16.862-5.8926 24.92-9.6318 6.7461-4.1648 12.413-9.8293 17.789-15.598-11.189-26.838-23.292-53.292-35.003-79.887-6.8817-16.335-5.622-34.922-1.9324-51.859 2.6236-9.9215 8.53-18.342 11.846-28.063 3.7962-7.3415 4.9886-16.649 12.348-21.547 11.085-8.8084 22.866-17.508 36.411-22.057 18.073-1.4496 33.944-11.752 49.892-19.515 2.1532-13.726-5.5689-27.672-16.958-35.106-8.579-6.4598-18.962-12.741-21.672-23.938-5.0695-14.506-4.5508-29.979-4.7757-45.087-0.56978 0.10514-1.1396 0.21027-1.7094 0.31541z" fill="#de8787" fill-rule="evenodd"/>
  <path d="m398.13 344.46c-5.6325 6.0192-19.836 14.054-20.349 14.054-0.51333 0 0.21093-1.6337 1.6095-3.6304 2.9804-4.2551 3.3126-13.832 0.70582-20.357-1.8355-4.5948-1.8384-4.592-3.7908 3.569-1.0745 4.4921-3.1882 10.52-4.6969 13.395-3.5902 6.842-7.2957 10.917-8.9258 12.349-4.1183 3.6183-16.106 9.3783-19.48 9.3598-1.6079-8e-3 0.75176-1.7295 5.2438-3.8238 10.077-4.6983 15.184-12.509 15.773-12.504 1.411 0.0114 6.279-14.358 6.279-18.535 0-3.2084-0.0587-3.2057-3.6753 0.16952-2.0214 1.8866-10.971 6.81-19.889 10.941-23.234 10.763-29.239 16.14-32.826 29.392-4.7106 17.403-1.8592 33.475 7.9859 45.014l3.4842 4.0837-4.4096-3.8826c-6.1346-5.4015-10.782-16.078-12.302-28.26l-1.2885-10.328s-14.183 12.367-17.965 20.678c-4.5057 9.903-4.828 21.451-4.5121 32.326 0.23164 7.9732 0.63308 15.458 4.6783 23.468 1.628 1.4813 5.8171 1.1793 5.3718 2.8803-0.8862 3.386-1.3546 3.7487-2.3993 5.4289-1.2764 2.0527-1.2287 3.6507-4.6519 5.563-3.4728-1.301-20.91-10.846-28.009-17.863-10.296-10.176-20.387-21.042-26.087-33.287-3.4195-7.3463-10.461-36.529-10.026-44.175 2.2267-39.173 26.192-76.542 59.946-93.474 31.439-15.771 60.885-12.671 85.499 9.0014 14.762 12.997 19.886 15.733 28.178 25.861 0 0 6.6922 7.7726 6.5671 12.468-0.10467 3.9265-3.355 7.2506-6.0388 10.119zm-121.26 85.621c-0.52141-1.3031-0.9086-0.91602-0.98698 0.98688-0.0701 1.722 0.31528 2.6867 0.85809 2.1439 0.54282-0.54279 0.60078-1.9517 0.12904-3.1308zm-1.8135-18.917c-0.11106-14.858 0.25046-16.707 5.2497-26.866 7.4148-15.068 16.434-22.543 42.002-34.811 25.289-12.134 33.418-19.28 34.615-30.433 0.52011-4.8455-0.0328-8.1292-1.7462-10.361-2.3233-3.027-2.3784-2.8355-0.74848 2.6059 3.663 12.229-4.6056 21.101-29.348 31.49-17.425 7.3167-27.542 13.87-36.966 23.945-9.5335 10.192-14.138 20.64-15.206 34.505-0.71252 9.2461 0.47045 25.881 1.8403 25.881 0.23507 0 0.3737-7.1802 0.30819-15.956zm-42.29-23.554c-0.52141-1.3031-0.90852-0.91602-0.9869 0.98688-0.0701 1.722 0.3152 2.6867 0.85801 2.1439s0.60086-1.9516 0.12904-3.1308zm9.812-47.439c6.8918-13.115 21.626-27.63 36.747-36.2 12.627-7.1566 11.122-7.8243-1.9416-0.86133-25.135 13.397-42.273 37.449-44.715 62.755l-0.94577 9.8008 2.5197-12.214c1.3858-6.7174 5.1368-17.194 8.3354-23.281zm125.68-43.489c-7.1246-7.8725-31.627-16.753-45.138-16.36-4.1818 0.12186-2.6467 0.76722 5.7171 2.4035 6.6656 1.304 17.225 5.2052 25.319 9.3539 15.913 8.1568 17.907 8.8076 14.102 4.6026zm-73.735-0.22135c0.57237-0.92595-0.0833-1.1998-1.5371-0.64197-2.8298 1.0859-3.3475 2.2568-0.99787 2.2568 0.84529 0 1.9861-0.72666 2.535-1.6148z" fill="#de8787"/>
 </g>
</svg>
