<?xml version="1.0"?>
<svg xmlns:rdf="http://www.w3.org/1999/02/22-rdf-syntax-ns#" xmlns="http://www.w3.org/2000/svg" xmlns:cc="http://web.resource.org/cc/" xmlns:xlink="http://www.w3.org/1999/xlink" xmlns:dc="http://purl.org/dc/elements/1.1/" xmlns:svg="http://www.w3.org/2000/svg" id="svg602" xml:space="preserve" viewBox="0 0 584.53 831.55" version="1.0">
  <defs id="defs604">
    <linearGradient id="linearGradient791">
      <stop id="stop792" stop-color="#000200" stop-opacity=".9804" offset="0"/>
      <stop id="stop793" stop-color="#fd0505" offset="1"/>
    </linearGradient>
    <linearGradient id="linearGradient779">
      <stop id="stop780" stop-color="#fd0200" stop-opacity=".9804" offset="0"/>
      <stop id="stop781" stop-color="#0a0505" offset="1"/>
    </linearGradient>
    <linearGradient id="linearGradient897">
      <stop id="stop898" stop-color="#fff" stop-opacity=".4784" offset="0"/>
      <stop id="stop899" stop-color="#050000" stop-opacity="0" offset="1"/>
    </linearGradient>
    <linearGradient id="linearGradient687">
      <stop id="stop688" stop-color="#fd0200" stop-opacity=".9804" offset="0"/>
      <stop id="stop689" stop-color="#0a0502" offset="1"/>
    </linearGradient>
    <linearGradient id="linearGradient678">
      <stop id="stop679" stop-color="#0c75d5" offset="0"/>
      <stop id="stop680" offset="1"/>
    </linearGradient>
    <linearGradient id="linearGradient646">
      <stop id="stop647" stop-color="#f50000" offset="0"/>
      <stop id="stop648" stop-color="#0d0502" offset="1"/>
    </linearGradient>
    <linearGradient id="linearGradient643" y2="307.86" xlink:href="#linearGradient678" spreadMethod="reflect" gradientUnits="userSpaceOnUse" x2="390.59" gradientTransform="matrix(.86831 0 0 .83207 -6.6283 -15.344)" y1="304.2" x1="461.06"/>
    <radialGradient id="radialGradient644" xlink:href="#linearGradient646" spreadMethod="reflect" gradientUnits="userSpaceOnUse" cy="557.77" cx="451.17" gradientTransform="matrix(.81780 0 0 .88347 -6.6283 -15.344)" r="45.406"/>
    <linearGradient id="linearGradient645" y2="146.56" xlink:href="#linearGradient646" spreadMethod="reflect" gradientUnits="userSpaceOnUse" x2="394.36" gradientTransform="matrix(.84799 0 0 .85201 -6.6283 -15.344)" y1="148.18" x1="372.89"/>
    <linearGradient id="linearGradient650" y2="343.18" xlink:href="#linearGradient646" spreadMethod="reflect" gradientUnits="userSpaceOnUse" x2="577.93" gradientTransform="matrix(.73584 0 0 .98188 -6.6283 -15.344)" y1="358.58" x1="602.94"/>
    <linearGradient id="linearGradient651" y2="548.88" xlink:href="#linearGradient646" spreadMethod="reflect" gradientUnits="userSpaceOnUse" x2="388.88" gradientTransform="matrix(1.3744 0 0 .52570 -6.6283 -15.344)" y1="562.2" x1="411.26"/>
    <linearGradient id="linearGradient652" y2="351.05" xlink:href="#linearGradient646" gradientUnits="userSpaceOnUse" x2="216.22" gradientTransform="matrix(1.0166 0 0 .71067 -6.6283 -15.344)" y1="351.05" x1="130.02"/>
    <linearGradient id="linearGradient653" y2="207.72" xlink:href="#linearGradient646" gradientUnits="userSpaceOnUse" x2="298.35" gradientTransform="matrix(.73536 0 0 .98251 -6.6283 -15.344)" y1="207.72" x1="251.92"/>
    <linearGradient id="linearGradient654" y2="600.75" xlink:href="#linearGradient646" spreadMethod="reflect" gradientUnits="userSpaceOnUse" x2="580.95" gradientTransform="matrix(.73118 0 0 .98813 -6.6283 -15.344)" y1="604.18" x1="615.69"/>
    <linearGradient id="linearGradient655" y2="280.34" xlink:href="#linearGradient678" spreadMethod="reflect" gradientUnits="userSpaceOnUse" x2="709.9" gradientTransform="matrix(.80273 0 0 .90005 -6.6283 -15.344)" y1="276.23" x1="778.66"/>
    <linearGradient id="linearGradient656" y2="435.79" xlink:href="#linearGradient646" spreadMethod="reflect" gradientUnits="userSpaceOnUse" x2="376.43" gradientTransform="matrix(.99832 0 0 .72372 -6.6283 -15.344)" y1="505.11" x1="442.8"/>
    <linearGradient id="linearGradient657" y2="831.01" xlink:href="#linearGradient687" spreadMethod="reflect" gradientUnits="userSpaceOnUse" x2="559.1" gradientTransform="matrix(.72630 0 0 .99477 -6.6283 -15.344)" y1="830.31" x1="593.1"/>
    <radialGradient id="radialGradient658" xlink:href="#linearGradient646" spreadMethod="reflect" gradientUnits="userSpaceOnUse" cy="668.77" cx="278.74" gradientTransform="matrix(1.0479 0 0 .68949 -6.6283 -15.344)" r="29.226"/>
    <radialGradient id="radialGradient659" xlink:href="#linearGradient678" gradientUnits="userSpaceOnUse" cy="107.65" cx="434.66" gradientTransform="matrix(.77318 0 0 .93445 -6.6283 -15.344)" r="85.421"/>
    <linearGradient id="linearGradient661" y2="206.2" xlink:href="#linearGradient678" spreadMethod="reflect" gradientUnits="userSpaceOnUse" x2="926.6" gradientTransform="matrix(.59686 0 0 1.2105 -6.6283 -15.344)" y1="211.8" x1="967.88"/>
    <linearGradient id="linearGradient666" y2="448.82" xlink:href="#linearGradient678" spreadMethod="reflect" gradientUnits="userSpaceOnUse" x2="299.6" gradientTransform="matrix(1.1105 0 0 .65063 -6.6283 -15.344)" y1="511.73" x1="295.55"/>
    <radialGradient id="radialGradient670" xlink:href="#linearGradient687" spreadMethod="reflect" gradientUnits="userSpaceOnUse" cy="186.3" cx="374.12" gradientTransform="matrix(1.0249 0 0 .70493 -6.6283 -15.344)" r="99.433"/>
    <linearGradient id="linearGradient673" y2="414.88" xlink:href="#linearGradient678" spreadMethod="reflect" gradientUnits="userSpaceOnUse" x2="675.85" gradientTransform="matrix(.50686 0 0 1.4255 -6.6283 -15.344)" y1="414.88" x1="586.33"/>
    <linearGradient id="linearGradient675" y2="365.81" xlink:href="#linearGradient678" spreadMethod="reflect" gradientUnits="userSpaceOnUse" x2="521.62" gradientTransform="matrix(.70455 0 0 1.0255 -6.6283 -15.344)" y1="384.62" x1="551.21"/>
    <linearGradient id="linearGradient677" y2="294.88" xlink:href="#linearGradient678" spreadMethod="reflect" gradientUnits="userSpaceOnUse" x2="599.94" gradientTransform="matrix(.49767 0 0 1.4518 -6.6283 -15.344)" y1="350.22" x1="1033.1"/>
    <linearGradient id="linearGradient681" y2="315.75" xlink:href="#linearGradient678" spreadMethod="reflect" gradientUnits="userSpaceOnUse" x2="949.47" gradientTransform="matrix(.57943 0 0 1.2469 -6.6283 -15.344)" y1="358.42" x1="1175"/>
    <linearGradient id="linearGradient683" y2="521.7" xlink:href="#linearGradient678" gradientUnits="userSpaceOnUse" x2="643.83" gradientTransform="matrix(.80873 0 0 .89338 -6.6283 -15.344)" y1="537.81" x1="620.89"/>
    <linearGradient id="linearGradient684" y2="244.43" gradientUnits="userSpaceOnUse" x2="549.42" gradientTransform="matrix(.80273 0 0 .90005 -6.6283 -15.344)" y1="222.36" x1="731.47"><stop id="stop810" stop-color="#0c257f" stop-opacity="0" offset="0"/><stop id="stop811" stop-opacity=".9686" offset="1"/></linearGradient>
    <linearGradient id="linearGradient685" y2="209.74" xlink:href="#linearGradient678" spreadMethod="reflect" gradientUnits="userSpaceOnUse" x2="310.28" gradientTransform="matrix(.86784 0 0 .83253 -6.6283 -15.344)" y1="339.88" x1="446.18"/>
    <linearGradient id="linearGradient686" y2="93.94" xlink:href="#linearGradient678" spreadMethod="reflect" gradientUnits="userSpaceOnUse" x2="469.24" gradientTransform="matrix(.77318 0 0 .93445 -6.6283 -15.344)" y1="70.426" x1="332.97"/>
    <linearGradient id="linearGradient711" y2="390.56" xlink:href="#linearGradient678" spreadMethod="reflect" gradientUnits="userSpaceOnUse" x2="942.03" gradientTransform="matrix(.63818 0 0 1.1321 -6.6283 -15.344)" y1="343.08" x1="952.07"/>
    <radialGradient id="radialGradient712" xlink:href="#linearGradient678" gradientUnits="userSpaceOnUse" cy="551.71" cx="68.858" gradientTransform="scale(.88710 1.1273)" r="32.187"/>
    <radialGradient id="radialGradient713" xlink:href="#linearGradient678" spreadMethod="reflect" gradientUnits="userSpaceOnUse" cy="365.7" cx="58.447" gradientTransform="matrix(.85379 0 0 .84623 -6.6283 -15.344)" r="78.994"/>
    <linearGradient id="linearGradient884" y2="210.55" gradientUnits="userSpaceOnUse" x2="682.94" gradientTransform="scale(.82964 1.2053)" y1="210.55" x1="629.63"><stop id="stop894" stop-color="#450000" stop-opacity="0" offset="0"/><stop id="stop895" stop-color="#fff" stop-opacity=".4039" offset="1"/></linearGradient>
    <linearGradient id="linearGradient885" y2="210.55" xlink:href="#linearGradient897" gradientUnits="userSpaceOnUse" x2="682.94" gradientTransform="scale(.82964 1.2053)" y1="210.55" x1="629.63"/>
    <linearGradient id="linearGradient902" y2="111.48" xlink:href="#linearGradient897" gradientUnits="userSpaceOnUse" x2="1167.8" gradientTransform="matrix(.47167 0 0 1.5318 -6.6283 -15.344)" y1="111.48" x1="1123.9"/>
    <linearGradient id="linearGradient904" y2="36.045" gradientUnits="userSpaceOnUse" x2="460.34" gradientTransform="matrix(.53965 0 0 1.3388 -6.6283 -15.344)" y1="36.045" x1="401.92"><stop id="stop908" stop-color="#fff7f5" stop-opacity=".2588" offset="0"/><stop id="stop909" stop-color="#fff" stop-opacity="0" offset="1"/></linearGradient>
    <linearGradient id="linearGradient906" y2="123.45" gradientUnits="userSpaceOnUse" x2="443.7" gradientTransform="scale(.96922 1.0318)" y1="123.45" x1="391.79"><stop id="stop912" stop-color="#fdfdff" stop-opacity=".2078" offset="0"/><stop id="stop913" stop-opacity=".0588" offset="1"/></linearGradient>
    <linearGradient id="linearGradient915" y2="408.36" xlink:href="#linearGradient678" gradientUnits="userSpaceOnUse" x2="101.22" gradientTransform="matrix(1.2702 0 0 .56883 -6.6283 -15.344)" y1="408.36" x1="26.601"/>
    <linearGradient id="linearGradient916" y2="834.64" xlink:href="#linearGradient678" gradientUnits="userSpaceOnUse" x2="442.12" gradientTransform="matrix(.79070 0 0 .91375 -6.6283 -15.344)" y1="837.18" x1="507.76"/>
    <linearGradient id="linearGradient927" y2="341" xlink:href="#linearGradient678" gradientUnits="userSpaceOnUse" x2="125.96" gradientTransform="matrix(.86753 0 0 .83283 -6.6283 -15.344)" y1="341" x1="81.481"/>
    <linearGradient id="linearGradient748" y2="356.59" xlink:href="#linearGradient678" gradientUnits="userSpaceOnUse" x2="140.43" gradientTransform="matrix(.97048 0 0 .74448 -6.6283 -15.344)" y1="356.59" x1="82.38"/>
    <linearGradient id="linearGradient749" y2="284.74" xlink:href="#linearGradient678" gradientUnits="userSpaceOnUse" x2="87.059" gradientTransform="matrix(.70279 0 0 1.028 -6.6283 -15.344)" y1="284.74" x1="37.228"/>
    <linearGradient id="linearGradient751" y2="413.32" xlink:href="#linearGradient678" gradientUnits="userSpaceOnUse" x2="79.887" gradientTransform="matrix(1.0291 0 0 .70204 -6.6283 -15.344)" y1="413.32" x1="36.256"/>
    <linearGradient id="linearGradient753" y2="271.42" xlink:href="#linearGradient678" gradientUnits="userSpaceOnUse" x2="147.49" gradientTransform="matrix(.68502 0 0 1.0547 -6.6283 -15.344)" y1="271.42" x1="117.36"/>
    <linearGradient id="linearGradient754" y2="311.26" xlink:href="#linearGradient678" gradientUnits="userSpaceOnUse" x2="102.31" gradientTransform="matrix(.77642 0 0 .93056 -6.6283 -15.344)" y1="311.26" x1="93.548"/>
    <linearGradient id="linearGradient761" y2="917.01" xlink:href="#linearGradient678" spreadMethod="reflect" gradientUnits="userSpaceOnUse" x2="488.83" gradientTransform="matrix(.89522 0 0 .80706 -6.6283 -15.344)" y1="914.64" x1="543.29"/>
    <linearGradient id="linearGradient764" y2="808.42" xlink:href="#linearGradient678" spreadMethod="reflect" gradientUnits="userSpaceOnUse" x2="391.12" gradientTransform="matrix(.89522 0 0 .80706 -6.6283 -15.344)" y1="887.74" x1="405.44"/>
    <linearGradient id="linearGradient765" y2="858.11" xlink:href="#linearGradient678" spreadMethod="reflect" gradientUnits="userSpaceOnUse" x2="474.12" gradientTransform="matrix(.79070 0 0 .91375 -6.6283 -15.344)" y1="817.4" x1="476.54"/>
    <linearGradient id="linearGradient767" y2="309.25" xlink:href="#linearGradient646" spreadMethod="reflect" gradientUnits="userSpaceOnUse" x2="1030.8" gradientTransform="matrix(.41569 0 0 1.7381 -6.6283 -15.344)" y1="289.8" x1="1083.2"/>
    <linearGradient id="linearGradient771" y2="777.8" xlink:href="#linearGradient687" gradientUnits="userSpaceOnUse" x2="345.1" gradientTransform="matrix(1.1788 0 0 .61292 -6.6283 -15.344)" y1="777.8" x1="301.08"/>
    <radialGradient id="radialGradient776" xlink:href="#linearGradient779" spreadMethod="reflect" gradientUnits="userSpaceOnUse" cy="632.99" cx="153.48" gradientTransform="scale(.96561 1.0356)" r="11.254"/>
    <radialGradient id="radialGradient777" xlink:href="#linearGradient779" spreadMethod="reflect" gradientUnits="userSpaceOnUse" cy="578.67" cx="158.77" gradientTransform="scale(.95667 1.0453)" r="11.433"/>
    <radialGradient id="radialGradient778" xlink:href="#linearGradient779" spreadMethod="reflect" gradientUnits="userSpaceOnUse" cy="629.26" cx="155.25" gradientTransform="scale(.95667 1.0453)" r="11.433"/>
    <linearGradient id="linearGradient790" y2="326.2" xlink:href="#linearGradient791" spreadMethod="reflect" gradientUnits="userSpaceOnUse" x2="932.61" gradientTransform="matrix(.42485 0 0 1.7006 -6.6283 -15.344)" y1="307.16" x1="807.4"/>
    <linearGradient id="linearGradient795" y2="242.91" xlink:href="#linearGradient678" spreadMethod="reflect" gradientUnits="userSpaceOnUse" x2="1526" gradientTransform="matrix(.28862 0 0 2.5033 -6.6283 -15.344)" y1="243.65" x1="1497.9"/>
    <radialGradient id="radialGradient796" xlink:href="#linearGradient791" spreadMethod="reflect" gradientUnits="userSpaceOnUse" cy="872.97" cx="551.43" gradientTransform="scale(.98878 1.0114)" r="44.191"/>
    <linearGradient id="linearGradient797" y2="242.2" xlink:href="#linearGradient678" spreadMethod="reflect" gradientUnits="userSpaceOnUse" x2="1151.9" gradientTransform="matrix(.28862 0 0 2.5033 -6.6283 -15.344)" y1="239.41" x1="1573.6"/>
    <linearGradient id="linearGradient799" y2="292.14" xlink:href="#linearGradient678" spreadMethod="reflect" gradientUnits="userSpaceOnUse" x2="820.01" gradientTransform="matrix(.53558 0 0 1.349 -6.6283 -15.344)" y1="325.24" x1="995.88"/>
    <linearGradient id="linearGradient800" y2="276.92" xlink:href="#linearGradient678" spreadMethod="reflect" gradientUnits="userSpaceOnUse" x2="920.67" gradientTransform="matrix(.53558 0 0 1.349 -6.6283 -15.344)" y1="257.4" x1="904.19"/>
    <linearGradient id="linearGradient802" y2="662.53" xlink:href="#linearGradient678" gradientUnits="userSpaceOnUse" x2="24.855" gradientTransform="matrix(1.5611 0 0 .46280 -6.6283 -15.344)" y1="662.53" x1="5.883"/>
    <linearGradient id="linearGradient805" y2="403.6" xlink:href="#linearGradient678" spreadMethod="reflect" gradientUnits="userSpaceOnUse" x2="287.52" gradientTransform="matrix(1.0703 0 0 .67504 -6.6283 -15.344)" y1="409.84" x1="195.83"/>
    <radialGradient id="radialGradient806" xlink:href="#linearGradient678" spreadMethod="reflect" gradientUnits="userSpaceOnUse" cy="362.15" cx="402.69" gradientTransform="scale(1.0263 .97433)" r="11.427"/>
    <radialGradient id="radialGradient807" xlink:href="#linearGradient791" spreadMethod="reflect" gradientUnits="userSpaceOnUse" cy="387.39" cx="490.64" gradientTransform="scale(1.0263 .97433)" r="32.94"/>
    <linearGradient id="linearGradient813" y2="543.99" xlink:href="#linearGradient678" gradientUnits="userSpaceOnUse" x2="45.64" gradientTransform="matrix(1.4241 0 0 .50734 -6.6283 -15.344)" y1="543.99" x1="15.121"/>
    <linearGradient id="linearGradient821" y2="284.74" xlink:href="#linearGradient678" gradientUnits="userSpaceOnUse" x2="87.06" gradientTransform="matrix(.70279 0 0 1.028 -6.6283 -15.344)" y1="284.74" x1="37.228"/>
    <linearGradient id="linearGradient822" y2="728.99" xlink:href="#linearGradient678" gradientUnits="userSpaceOnUse" x2="59.29" gradientTransform="matrix(1.5761 0 0 .45841 -6.6283 -15.344)" y1="728.99" x1="52.385"/>
    <linearGradient id="linearGradient823" y2="418.27" xlink:href="#linearGradient678" gradientUnits="userSpaceOnUse" x2="79.687" gradientTransform="matrix(.88746 0 0 .81412 -6.6283 -15.344)" y1="418.27" x1="69.163"/>
    <linearGradient id="linearGradient824" y2="331.81" xlink:href="#linearGradient678" gradientUnits="userSpaceOnUse" x2="78.154" gradientTransform="matrix(.6969 0 0 1.0367 -6.6283 -15.344)" y1="331.81" x1="73.611"/>
    <linearGradient id="linearGradient825" y2="173.25" xlink:href="#linearGradient678" gradientUnits="userSpaceOnUse" x2="101.19" gradientTransform="matrix(.41805 0 0 1.7283 -6.6283 -15.344)" y1="173.25" x1="97.844"/>
    <linearGradient id="linearGradient826" y2="680.09" xlink:href="#linearGradient678" spreadMethod="reflect" gradientUnits="userSpaceOnUse" x2="45.542" gradientTransform="matrix(1.9167 0 0 .37696 -6.6283 -15.344)" y1="718.17" x1="58.428"/>
    <radialGradient id="radialGradient831" xlink:href="#linearGradient678" spreadMethod="reflect" gradientUnits="userSpaceOnUse" cy="551.61" cx="43.314" gradientTransform="matrix(1.2654 0 0 .57094 -6.6283 -15.344)" r="10.643"/>
    <linearGradient id="linearGradient835" y2="226.39" xlink:href="#linearGradient678" gradientUnits="userSpaceOnUse" x2="205.75" gradientTransform="matrix(.61410 0 0 1.1765 -6.6283 -15.344)" y1="226.39" x1="172.14"/>
    <linearGradient id="linearGradient837" y2="358.53" xlink:href="#linearGradient678" spreadMethod="reflect" gradientUnits="userSpaceOnUse" x2="154.31" gradientTransform="matrix(1.0514 0 0 .68717 -6.6283 -15.344)" y1="345.81" x1="187.3"/>
    <linearGradient id="linearGradient839" y2="222.93" xlink:href="#linearGradient678" gradientUnits="userSpaceOnUse" x2="240.4" gradientTransform="matrix(1.0359 0 0 .69743 -6.6283 -15.344)" y1="222.93" x1="188.3"/>
    <linearGradient id="linearGradient841" y2="181.6" xlink:href="#linearGradient678" spreadMethod="reflect" gradientUnits="userSpaceOnUse" x2="760.48" gradientTransform="matrix(.45006 0 0 1.6054 -6.6283 -15.344)" y1="181.6" x1="744.13"/>
    <linearGradient id="linearGradient843" y2="325.34" xlink:href="#linearGradient678" spreadMethod="reflect" gradientUnits="userSpaceOnUse" x2="527.88" gradientTransform="matrix(.88793 0 0 .81369 -6.6283 -15.344)" y1="327.09" x1="506.84"/>
  <linearGradient id="linearGradient2375" y2="467.47" xlink:href="#linearGradient678" spreadMethod="reflect" gradientUnits="userSpaceOnUse" x2="303.93" gradientTransform="matrix(1.1011 0 0 .65614 -6.6283 -15.344)" y1="529.85" x1="299.91"/></defs>
  <path id="path625" d="m313.23 269.39l-29.83 33.09 12.34 56.3 30.73 4.54 26.34-4.72 29.37-8.28 25.59-21.7 21.81-21.6-15.41-22.14-43.57-27.16-57.37 11.67z" fill-rule="evenodd" stroke="#000" stroke-width="1.3529" fill="url(#linearGradient656)"/>
  <path id="path766" d="m420.36 673.17l-13.39-64.23-9.36-70.92v-52.19l42.82 95.01 1.34 68.25-21.41 24.08z" fill-rule="evenodd" stroke="#000" stroke-width=".85" fill="url(#linearGradient767)"/>
  <path id="path760" d="m334.71 765.24l-1.34 43.36 16.06 22.48 29.44-1.6 16.06-24.09 2.68-33.72-28.11-28.91-24.08 1.61-10.71 20.87z" fill-rule="evenodd" stroke="#000" stroke-width=".93113" fill="url(#linearGradient657)"/>
  <path id="path759" d="m322.67 733.39l12.04 56.21 1.34 1.34 13.38-32.12 25.43-1.34 22.75 32.12 6.69-53.53-21.41-40.15-44.16 8.03-16.06 29.44z" fill-rule="evenodd" stroke="url(#linearGradient765)" stroke-width="4.3562" fill="url(#linearGradient916)"/>
  <path id="path739" d="m30.1 247.81l50.938-31.64 57.112 38.59-13.12 36.27-25.469 18.53-13.153-0.61-30.839-33.35-1.664-8.14-23.805-19.65z" fill-opacity=".9848" fill="#000300" fill-rule="evenodd"/>
  <path id="path616" d="m295.82 287.62c2.81 1.62-4.63 8.39-3.6 18.96 1.21 12.43 5.47 26.06 11.67 36.64 3.55 6.06 10.97 11 17.58 13.27 6.66 2.3 20.22-3.68 22.22 0.46 2.67 5.55-5.11 19.21-8.22 28.64-3.1 9.43-6.3 18.94-10.42 27.92-2.01 4.36-8.35 11.17-7.97 12.11 0.33 0.8 7.29-8 10.11-6.89 4.54 1.79 11.14 9.34 11.99 15.61 3.14 23.2 2.73 49.1 0 72.82-1.11 9.62-5.65 21.89-11.53 27.18-3.13 2.83-10.74-3.47-15.51-2.79-3.02 0.43-7.01 8.24-7.87 6.11-3.07-7.58-2.49-23.5-3.91-35.23-0.55-4.51 0.85-10.23-2.02-13.49-10.24-11.58-28.04-18.68-37.31-31.03-5.62-7.48-7.35-18.85-7.35-28.43 0-14.94 5.19-30.06 7.35-45.15 2.4-16.75 3.53-33.71 6.33-50.39 2.08-12.42 2.9-26.01 8.34-36.9 4.5-9.01 21.77-25.9 21.46-22.81l-1.34 13.39z" fill="url(#linearGradient677)" fill-rule="evenodd"/>
  <path id="path618" d="m317.32 510.27c-10.05 5.58-16.88 34.42-15.88 52.51 0.53 9.63 5.07 23.02 11.31 27.58 4.4 3.22 16.47 0.81 20.59-4.24 12.81-15.65 34.61-44.07 30.21-57.86-4-12.52-66.96-24.9-55.4-21.05l9.17 3.06z" fill-rule="evenodd" stroke="#000" stroke-width="1.3529" fill="url(#linearGradient654)"/>
  <path id="path612" d="m263.7 213.05l14.84 37.24 18.22 33.48-4.91 20.09 32.51 60.67 18.69 11.85 21.91 13.69 25.26-29.93 10.97-22.55 21.49-14.68-0.68-7.03 4.33-0.22 5.81-5.87-6.7-13.32 20.98-59.47 20.72-41.88-203.44 17.93z" fill="url(#linearGradient643)" fill-rule="evenodd"/>
  <path id="path820" d="m420.24 220.43l-23.76 83.71 8.3 21.49 23.38-17.35-5.28-11.68 14.33-45.63 4.9-11.31-8.3-10.93-4.52-16.22-9.05 7.92z" fill-opacity=".6294" fill-rule="evenodd"/>
  <path id="path819" d="m419.72 258.51l2.52 22.87-25.74 25.11-57.43 31.4-48.94-43.45-1.1-23.01 130.69-12.92z" fill="url(#linearGradient2375)" fill-rule="evenodd"/>
  <path id="path815" d="m419.3 243.81l2.56 22.87-26.18 25.11-58.4 31.39-49.77-43.45-1.12-23.01 132.91-12.91z" fill="url(#linearGradient666)" fill-rule="evenodd"/>
  <path id="path818" d="m263.72 198.95l171.04 13.92-12.9 39.47-25.18 20.83-60.15 33.65-54.43-44.28-18.38-63.59z" fill="url(#linearGradient805)" fill-rule="evenodd"/>
  <path id="path814" d="m426.5 230.1l-33.62 32.56-57.78 26.43-44.87-31.83-6.53-20.79 61.46 11.65 82.85-22.92-1.51 4.9z" fill-opacity=".4721" fill-rule="evenodd"/>
  <path id="path768" d="m317.31 682.54l6.7-34.79 16.05-100.37-10.7-44.16-32.12 93.68-1.34 61.55 21.41 24.09z" fill-rule="evenodd" stroke="#000" stroke-width=".85" fill="url(#linearGradient790)"/>
  <path id="path614" d="m239.81 97.819c-14.13 12.701-29.89 24.131-42.39 38.101-5.62 6.29-9.74 14.85-11.96 22.69-1.05 3.72 3.49 9.98 2.14 11.98-1.03 1.54-6.46-2.52-9.26-1.38-12.39 5.07-33.11 6.5-44.8 13.83-17.23 10.82-54.015 25.42-71.329 36.03-7.302 4.48 55.499 25.09 58.499 28.95 27.56 34.5-32.504 61.73-17.95 56.03 24.48-9.59 37.49-4.42 59.12-17.99 8.36-5.25 46.8-69.3 50.71-78.26 2.01-4.63-2.55-12.9 0.24-15.77 3.11-3.22 12.61 0.57 17.45-2.49 16.65-10.49 45.51-23.46 47.03-38.17 1.65-15.87-25-35.7-37.5-53.551z" fill="url(#linearGradient685)" fill-rule="evenodd"/>
  <path id="path615" d="m364.75 360.42l38.38-39.55 19.54-10.89 20.72-5.42 8.54 23.16-1.71 39.07-26.54 64.92-25.98 43.74 23.08 198.07 15.55-60.28 11.18 60.15-38.63 73.84-29.82-61.94-37.14 0.71-23.41 38.33 8.09 25.5-32.13-68.44 3.47-64.57 19.26 51.69 16.96-196.57 1.44-21.79 10.79-51.95 18.36-37.78z" fill-rule="evenodd" stroke="#000" stroke-width="1.3529" fill="url(#linearGradient673)"/>
  <path id="path674" d="m333.54 468.24c3.96 4.79 15.25 5.88 23.14 6.54 11.66 0.97 27 5.02 35.49-1.64 17.23-13.5 30.3-37.92 41.67-58.82 8.18-15.05 13.39-32.29 16.97-49.03 2.59-12.13 1.54-25.06 1.54-37.58 0-8.67 3.11-21.41-1.52-26.01-4.76-4.71-25.93 6.35-33.36 10.12-21.12 12.72-32.07 21.38-50.6 43.51-7.04 8.42-16.09 25.66-19.44 36.11-5.91 18.41-8.88 38.03-12.35 57.19-1.16 6.44-4.78 15.69-1.54 19.61z" fill="url(#linearGradient675)" fill-rule="evenodd"/>
  <path id="path770" d="m357.46 511.44l2.68 122.69" fill-rule="evenodd" stroke="url(#linearGradient795)" stroke-width="12.963" fill="url(#linearGradient797)"/>
  <path id="path613" d="m429.57 190.91c4.73 17.18-0.47 41.41 14.19 51.54l57.08 39.41-19.14 17.4-24.95 48.76-38.81 86.13 0.82 41.11 4.01 44.02 32.06 1.57 46.61 3.14 12.49-14.02 52.46-107.85 12.05-37.99 5.41-31.69 0.68-28.38c-0.75-6.08-6.7-14.61-13.81-17.02-6.54-1.08-9.61-4.61-20.78-5.69l13.19-33.24c5.53-13.95-10.79-28.32-18.66-40.97-9.18-14.76-18-39.2-32.51-41.25-23.79-3.36-54.92 16.68-82.39 25.02z" fill="url(#linearGradient681)" fill-rule="evenodd"/>
  <path id="path611" d="m267.09 203.99c14.21 8.29 27.66 18.34 42.64 24.88 14.69 6.41 30.63 12.4 46.38 13.97 14.86 1.49 31.42-0.19 45.47-4.79 10.37-3.39 17.77-14.45 27.77-19.19 8.05-3.82 17.42-6.02 26.38-6.49 17.34-0.92 37.23 7.59 52.53 2.33 13.93-4.79 24.96-20.45 35.14-32.49 6.46-7.63 14.84-17.21 14.78-26.51-0.11-14.74-7.25-32.28-15.29-45.6-6.52-10.796-17.63-21.076-28.38-26.736-6.14-3.237-15.74-2.435-22.29 0.044-7.29 2.757-12.03 12.203-19.24 15.663-5.99 2.879-14.13 5.299-20.36 3.349-12.79-4.001-24.61-13.904-36.71-21.206-9.21-5.561-17.45-12.951-27.21-17.382-28.37-12.864-60.33-19.762-87.19-34.501-10.84-5.945-15.46-23.223-25.92-27.55-9.14-3.78-23.64-0.99207-32.88 3.2306-6.61 3.0168-10.3 11.971-14.69 18.487-6.64 9.873-14.21 19.733-18.38 30.679-3.71 9.701-5.64 21.159-5.26 31.261 0.19 4.961 3.71 9.925 6.96 13.928 10.83 13.363 27.5 23.273 35.26 38.173 8.88 17.05 8.85 38.86 14.65 57.68 1.03 3.33 3.9 5.85 5.84 8.77z" fill="url(#radialGradient670)" fill-rule="evenodd"/>
  <path id="path882" d="m526.84 207.88c15.15 10.76 20.81 29.58 22.39 46.8-7.69 4.3-22.16 11.83-29.85 16.14" stroke="url(#linearGradient661)" stroke-linecap="round" stroke-width="2.3275" fill="none"/>
  <path id="path629" d="m497.71 283.56c9.3-4.2 18.88-7.8 27.89-12.6 7.65-4.08 21.79-13.03 29.01-13.44 5.49-0.32 14.42 6.59 10.86 17.37-1.14 3.22 7.12 8.83 0.86 9.63-9.86 1.39-32.73-7.98-43.74-7.41-8.41 0.44-16.59 4.3-24.88 6.45z" stroke-width=".83724" fill="url(#linearGradient651)" fill-rule="evenodd"/>
  <path id="path648" d="m435.38 213.33c1.03-29.42-1.67-60.11 3.09-88.24 1.41-8.37 13-13.53 15.43-21.25 1.68-5.355 1.97-15.193-3.09-17.971-37.63-20.643-96.24-44.504-133.26-41.265-25.21 2.208-34.91 33.35-53.45 57.606-7.69 10.06-16.45 22.12-16.97 34.31-1.02 23.76 5.36 51.79 12.34 73.54 6.37 21.16 13.04 36.64 25.58 43.15l47.59 24.69 48.73-17.92c7.38-2.71 20.67-16.93 27.16-21.26 11.51-7.66 16.56-15.59 26.85-25.39z" fill-rule="evenodd" stroke="url(#linearGradient684)" stroke-width="3.2938" fill="url(#linearGradient655)"/>
  <path id="path610" d="m368.92 80.699c6.65 1.854 12.43 11.214 14.31 17.426 1.8 5.945-0.84 13.335-3.28 19.055-2.19 5.14-6.54 9.46-10.61 13.51-6.19 6.17-12.41 12.84-20.17 17.16-8.22 4.57-13.14 9.01-22.72 10.76-4.19 0.77-14.14-1.77-17.71-4.17-5.69-3.82-11.41-9.74-15.12-15.76-3.18-5.16-5.94-11.21-6.46-16.82-0.74-7.99-1.14-17.59 2.69-23.973 4.82-8.039 13.42-17.167 23.25-19.305 16.52-3.591 39.1-2.543 55.82 2.117z" fill-opacity=".298" fill="#000300" fill-rule="evenodd"/>
  <path id="path607" d="m281.62 53.716l87.77 1.079-2.73 33.821-23.84 32.604-6.84 11.35 4.63 3.14-12.54 5.98-16.68 0.22-8.71-11.9-17.31-30.548-3.75-45.746z" fill="url(#linearGradient645)" fill-rule="evenodd"/>
  <path id="path606" d="m328.36 122.16l8.93-5.61-2.36-14 17.19-7.734 9.03-9.13 1.48-24.795-21.54 28.067-10.08 5.39-28.85 1.594-6.98-3.437-6.69-7.089-1.67-8.496-3.25-5.212 1.93 18.743 12.76 12.079-0.93 14.04 6.61 3.67 8.44 24.26-23.91-30.06-8.28-39.684 3.8-30.832c0.58-4.69 5.97-7.97 10.15-9.896 9.25-4.26 19.92-7.09 30.14-8.661 7.6-1.17 15.73-0.808 23.33 0.439 7.92 1.299 17.29 2.662 23.23 7.197 4.68 3.581 8.97 10.762 8.63 17.153l-1.55 28.549c-0.19 3.53 0.45 7.439-1.27 10.528l-8 14.367-3.22 16.29-23.2 16.53-13.84 8.64-0.03-22.9z" stroke-opacity=".9695" fill-rule="evenodd" stroke="url(#radialGradient659)" stroke-width="1.8806" fill="url(#linearGradient686)"/>
  <path id="path631" d="m178.63 167.56l17.21 18.12 8.35 25.87 5.86-1.6 2.72-5.08-1.59-12.49-15.2-15.88-10.04-10.57-7.31 1.63z" fill="url(#linearGradient653)" fill-rule="evenodd"/>
  <path id="path633" d="m254.83 427.96l5.39 28.98 14.44 8.98 30.94-21.82 10.48-18.48-23.58 17.13-18.93-1.28-18.74-13.51z" fill="url(#radialGradient658)" fill-rule="evenodd"/>
  <path id="path632" d="m398.41 487.94l-4.33-15.98-10.09-7.5-30.57-2.65-4.72 22.99 51.05-2.21-1.34 5.35z" fill-rule="evenodd" stroke="#000" stroke-width=".84405" fill="url(#linearGradient771)"/>
  <path id="path634" d="m507.91 375.56l16.09-36.87 12.06-32.68 12.54-25.79-40.66-1.63-11.22 21.48-18.2 39.76-24.55 46.49-16.9 38.49c-0.68 1.54 11.04 1.52 21.45 2 10.43 0.49 25.66 1.67 27.1-1.41l10.9-23.38 11.39-26.46z" fill="url(#linearGradient650)" fill-rule="evenodd"/>
  <path id="path676" d="m387.55 474.78" stroke="#000" stroke-width="1.0081" fill="none"/>
  <path id="path635" d="m131.73 264.77l54.53-23.93 26.93-37.33-10.02 1.94-10.73 12.38-14.79 13.95-29.52 11.95-22.57 6.37 6.17 14.67z" fill="url(#linearGradient652)" fill-rule="evenodd"/>
  <path id="path682" d="m421.79 432.9c11.83-1.59 39.62 0.12 51.45 0.69 31.21 1.49 27.87 4.43 27.52 12.59-1.06 24.77-0.38 73.41-4.9 73.08-5.68 2.32-48.94-2.7-70.8-2.82" stroke="url(#linearGradient683)" stroke-width="1.0081" fill="none"/>
  <g id="g701" stroke-linejoin="round" stroke-opacity=".9061" transform="matrix(1.2878 -.050209 0 1.0965 378.84 -202.52)" stroke="#020074" stroke-linecap="round" stroke-width="1.25" fill="url(#radialGradient712)">
    <path id="path690" d="m53.833 589.15a7.5115 7.5115 0 1 1 -15.023 0 7.5115 7.5115 0 1 1 15.023 0z" transform="matrix(.76066 .018508 -.013830 .98123 54.471 69.675)"/>
    <path id="path693" d="m53.833 589.15a7.5115 7.5115 0 1 1 -15.023 0 7.5115 7.5115 0 1 1 15.023 0z" transform="matrix(.76066 .018508 -.013830 .98123 35.443 67.983)"/>
    <path id="path694" d="m53.833 589.15a7.5115 7.5115 0 1 1 -15.023 0 7.5115 7.5115 0 1 1 15.023 0z" transform="matrix(.76066 .018508 -.013830 .98123 14.51 66.245)"/>
    <path id="path695" d="m53.833 589.15a7.5115 7.5115 0 1 1 -15.023 0 7.5115 7.5115 0 1 1 15.023 0z" transform="matrix(.76066 .018508 -.013830 .98123 54.817 45.106)"/>
    <path id="path696" d="m53.833 589.15a7.5115 7.5115 0 1 1 -15.023 0 7.5115 7.5115 0 1 1 15.023 0z" transform="matrix(.76066 .018508 -.013830 .98123 34.837 43.391)"/>
    <path id="path697" d="m53.833 589.15a7.5115 7.5115 0 1 1 -15.023 0 7.5115 7.5115 0 1 1 15.023 0z" transform="matrix(.76066 .018508 -.013830 .98123 14.856 41.676)"/>
    <path id="path698" d="m53.833 589.15a7.5115 7.5115 0 1 1 -15.023 0 7.5115 7.5115 0 1 1 15.023 0z" transform="matrix(.76066 .018508 -.013830 .98123 54.211 20.515)"/>
    <path id="path699" d="m53.833 589.15a7.5115 7.5115 0 1 1 -15.023 0 7.5115 7.5115 0 1 1 15.023 0z" transform="matrix(.76066 .018508 -.013830 .98123 36.118 20.074)"/>
    <path id="path700" d="m53.833 589.15a7.5115 7.5115 0 1 1 -15.023 0 7.5115 7.5115 0 1 1 15.023 0z" transform="matrix(.76066 .018508 -.013830 .98123 17.09 18.383)"/>
  </g>
  <path id="path881" d="m502.36 431.38l57.81-143.86c2.35-5.85 17.74 6.26 20.23 11.63 2.91 6.26 1.93 14.69 2.89 22.04v3.67" stroke="url(#linearGradient711)" stroke-linecap="round" stroke-width="2.3943" fill="none"/>
  <path id="path892" d="m566.6 285.91a22.113 32.127 0 1 1 -44.23 0 22.113 32.127 0 1 1 44.23 0z" fill="url(#linearGradient884)" transform="matrix(1.1125 0 0 .57184 -94.197 -56.592)" fill-opacity=".9014"/>
  <path id="path896" d="m566.6 285.91a22.113 32.127 0 1 1 -44.23 0 22.113 32.127 0 1 1 44.23 0z" fill="url(#linearGradient885)" transform="matrix(1.0121 0 0 .51094 -293.19 -126.13)" fill-opacity=".9014"/>
  <path id="path901" d="m541.83 121.78c10.71 27.53-18.35 67.28-18.35 67.28s15.29-24.46 9.18-38.23c-6.12-13.76 9.17-27.52 9.17-29.05z" fill="url(#linearGradient902)" fill-rule="evenodd"/>
  <path id="path903" d="m232.01 111.07s-27.84-23.63-20.51-49.075c7.32-25.446 20.51-29.081 20.51-29.081s-13.19 16.358 4.39 18.175c17.58 1.818-13.18 3.636-16.11 12.723-2.93 9.088 13.18 49.078 11.72 47.258z" fill="url(#linearGradient904)" fill-rule="evenodd"/>
  <path id="path910" d="m430.04 154.15a25.153 26.776 0 1 1 -50.31 0 25.153 26.776 0 1 1 50.31 0z" fill="url(#linearGradient906)" transform="matrix(.52097 .21604 0 .45664 88.604 -107.47)"/>
  <path id="path736" d="m73.32 267.88l9.261-6.95 37.049-10.8 5.4 3.09 4.63 24.69-18.52 15.44-6.95-1.54-3.09-18.53s-2.311-5.4-4.626-5.4c-2.316 0-20.839 3.09-23.154 0z" fill="url(#linearGradient748)" fill-rule="evenodd"/>
  <path id="path738" d="m72.548 302.61l-32.415 3.09-6.946-5.4 1.543-13.9 30.1-10.03 6.175 8.49 1.543 17.75z" stroke="#000" stroke-width=".85pt" fill="none"/>
  <path id="path740" d="m31.643 250.9l-17.751 16.98v3.09l-7.7177 10.8-6.1743 13.9 3.0871 6.94 4.6308 20.07 14.664 12.35 12.348-5.41 7.718 5.41 7.718 0.77 9.262 1.54 6.946-6.94 6.946 3.08 8.49-3.86 5.402-8.49-6.174-16.2-23.154-47.08-26.241-6.95z" fill="url(#radialGradient713)" fill-rule="evenodd"/>
  <path id="path741" d="m15.436 269.42l29.28 6.18 13.119-14.42" stroke="url(#linearGradient813)" stroke-width=".85pt" fill="none"/>
  <path id="path742" d="m3.0871 294.89l28.556-3.08v1.54l-10.805 2.32-14.664 3.85" stroke="url(#linearGradient802)" stroke-width=".85pt" fill="none"/>
  <path id="path743" d="m20.066 323.45l9.262-3.86 3.087-17.75v-10.81l2.315-7.71 19.295-5.41-11.577 33.96-8.489 16.21-5.403-10.03-8.49 5.4z" fill-rule="evenodd" stroke="url(#linearGradient821)" stroke-width=".85pt" fill="url(#linearGradient749)"/>
  <path id="path744" d="m42.448 331.17l3.859-3.11 8.49-11.65 8.49 10.1 14.664-8.55 3.215-13.68 9.905-4.18-31.186-36.84-26.408 26.4-3.377 29.08 3.859 7.77 8.489 1.55v3.11z" fill-opacity=".9882" fill="#000300" fill-rule="evenodd"/>
  <path id="path745" d="m45.097 329.08l2.315 3.86" stroke="url(#linearGradient824)" stroke-width=".85" fill="none"/>
  <path id="path746" d="m76.361 319.26l10.033 2.31" stroke="url(#linearGradient822)" stroke-width=".85" fill="none"/>
  <path id="path747" d="m63.666 325.6l-8.49 7.72" stroke="url(#linearGradient823)" stroke-width=".85" fill="none"/>
  <path id="path737" d="m64.058 274.83l11.577-6.18h21.61l5.405 23.93-5.405 6.17-20.066 6.95-4.631-3.86v-15.44l-8.49-11.57z" fill="url(#linearGradient927)" fill-rule="evenodd"/>
  <path id="path750" d="m64.058 274.83l-30.289 8.1-3.085 11.63 2.509 10.9 42.393-0.92-3.038-18.14-8.49-11.57z" fill="url(#linearGradient751)" fill-rule="evenodd"/>
  <path id="path735" d="m60.636 216.94l60.924 21.47 0.38 10.95-12.35 2.31-26.237 7.72-20.066-0.77-32.656-9.26-3.472-3.62 33.477-28.8z" fill="url(#linearGradient915)" fill-rule="evenodd"/>
  <path id="path758" d="m405.64 750.79l8.03-6.69 18.73-49.52-53.53-62.89-34.79 2.68-44.16 60.21 21.41 46.84 24.09-26.76 30.78-1.34 29.44 37.47z" fill-rule="evenodd" stroke="url(#linearGradient764)" stroke-width="3.4" fill="url(#linearGradient761)"/>
  <path id="path769" d="m406.97 745.44l-29.44-34.8-34.79 1.34-22.75 25.43" stroke="#000" stroke-width=".85pt" fill="none"/>
  <g id="g782" stroke-linejoin="round" transform="matrix(.67105 0 0 1.5988 311.75 -447.98)" stroke="#000" stroke-linecap="round" stroke-width="1.25">
    <path id="path772" d="m174.75 631.22a7.8717 8.6589 0 1 1 -15.74 0 7.8717 8.6589 0 1 1 15.74 0z" fill="url(#radialGradient778)"/>
    <path id="path773" d="m174.75 631.22a7.8717 8.6589 0 1 1 -15.74 0 7.8717 8.6589 0 1 1 15.74 0z" fill="url(#radialGradient777)" transform="translate(-3.1487 48.805)"/>
    <path id="path775" d="m185.77 657.2a10.233 11.02 0 1 1 -20.46 0 10.233 11.02 0 1 1 20.46 0z" fill="url(#radialGradient776)"/>
  </g>
  <g id="g786" stroke-linejoin="round" transform="matrix(-.53684 0 0 1.4774 402.33 -364.35)" stroke="#000" stroke-linecap="round" stroke-width="1.25">
    <path id="path787" d="m174.75 631.22a7.8717 8.6589 0 1 1 -15.74 0 7.8717 8.6589 0 1 1 15.74 0z" fill="url(#radialGradient778)"/>
    <path id="path788" d="m174.75 631.22a7.8717 8.6589 0 1 1 -15.74 0 7.8717 8.6589 0 1 1 15.74 0z" fill="url(#radialGradient777)" transform="translate(-3.1487 48.805)"/>
    <path id="path789" d="m185.77 657.2a10.233 11.02 0 1 1 -20.46 0 10.233 11.02 0 1 1 20.46 0z" fill="url(#radialGradient776)"/>
  </g>
  <path id="path794" stroke-linejoin="round" d="m516.39 871.31a33.849 34.636 0 1 1 -67.7 0 33.849 34.636 0 1 1 67.7 0z" stroke-opacity=".9061" transform="matrix(.85 0 0 .85 -49.351 -62.088)" stroke="#020074" stroke-linecap="round" stroke-width="1.25" fill="url(#radialGradient796)"/>
  <path id="path798" d="m405.21 326.52l-43.68 125.74v0" fill-rule="evenodd" stroke="url(#linearGradient800)" stroke-linecap="round" stroke-width="10.336" fill="url(#linearGradient799)"/>
  <path id="path626" d="m329.96 471.29l-0.3 19.88 25.87 24.12 40.09-28.66-0.87-18.94-31.75-23.66-33.04 27.26z" fill="url(#radialGradient644)" fill-rule="evenodd"/>
  <path id="path803" stroke-linejoin="round" d="m453.41 352.56a39.359 36.997 0 1 1 -78.71 0 39.359 36.997 0 1 1 78.71 0z" stroke-opacity=".9061" transform="matrix(.765 0 0 .75958 8.8555 -54.301)" stroke="url(#radialGradient806)" stroke-linecap="round" stroke-width="14.479" fill="url(#radialGradient807)"/>
  <path id="path804" stroke-linejoin="round" d="m415.63 354.92a0 3.1487 0 1 1 0 0 0 3.1487 0 1 1 0 0z" stroke-opacity=".9061" transform="matrix(.85 0 0 .85 -23.925 -64.765)" stroke="#020074" stroke-linecap="round" stroke-width="1.25" fill="#0d37ff"/>
  <path id="path828" d="m93.876 271.45l-19.578 12.49 3.038 18.23" stroke="url(#linearGradient753)" stroke-width=".85pt" fill="none"/>
  <path id="path829" d="m66.535 274.83l5.738 7.09" stroke="url(#linearGradient754)" stroke-width=".85pt" fill="none"/>
  <path id="path830" d="m70.586 286.31l-35.78 6.75-0.675 9.11" stroke="url(#radialGradient831)" stroke-width=".85pt" fill="none"/>
  <path id="path832" d="m34.806 284.62l0.338 4.72" stroke="url(#linearGradient825)" stroke-width=".85pt" fill="none"/>
  <path id="path833" d="m29.406 245.13l3.375 3.03 30.041 7.77h22.278l32.74-16.54" stroke="url(#linearGradient826)" stroke-width=".85pt" fill="none"/>
  <path id="path834" d="m119.19 251.54l-19.576 15.19 5.396 7.76 4.73 15.53" stroke="url(#linearGradient835)" stroke-width=".85pt" fill="none"/>
  <path id="path836" d="m123.46 231.37l55.43-22.68 12.6-21.42" stroke="url(#linearGradient837)" stroke-width=".85pt" fill="none"/>
  <path id="path838" d="m188.97 159.56l15.12 16.38h7.56l30.23-35.28" stroke="url(#linearGradient839)" stroke-width=".85pt" fill="none"/>
  <path id="path840" d="m328.8 276.72l6.3 25.19" stroke="url(#linearGradient841)" stroke-width=".85pt" fill="none"/>
  <path id="path842" d="m442.18 214.99l11.34 18.9 47.87 35.27" stroke="url(#linearGradient843)" stroke-width=".85pt" fill="none"/>
<metadata><rdf:RDF><cc:Work><dc:format>image/svg+xml</dc:format><dc:type rdf:resource="http://purl.org/dc/dcmitype/StillImage"/><cc:license rdf:resource="http://creativecommons.org/licenses/publicdomain/"/><dc:publisher><cc:Agent rdf:about="http://openclipart.org/"><dc:title>Openclipart</dc:title></cc:Agent></dc:publisher><dc:title>Mecha Warrior</dc:title><dc:date>2006-12-26T00:00:00</dc:date><dc:description>blue, clip art, clipart, color, droid, robot, s_f, science_fiction, toy, </dc:description><dc:source>http://openclipart.org/detail/3505/-by--3505</dc:source><dc:creator><cc:Agent><dc:title>edsonsantos</dc:title></cc:Agent></dc:creator><dc:subject><rdf:Bag><rdf:li>blue</rdf:li><rdf:li>clip art</rdf:li><rdf:li>clipart</rdf:li><rdf:li>color</rdf:li><rdf:li>droid</rdf:li><rdf:li>robot</rdf:li><rdf:li>s_f</rdf:li><rdf:li>science_fiction</rdf:li><rdf:li>toy</rdf:li></rdf:Bag></dc:subject></cc:Work><cc:License rdf:about="http://creativecommons.org/licenses/publicdomain/"><cc:permits rdf:resource="http://creativecommons.org/ns#Reproduction"/><cc:permits rdf:resource="http://creativecommons.org/ns#Distribution"/><cc:permits rdf:resource="http://creativecommons.org/ns#DerivativeWorks"/></cc:License></rdf:RDF></metadata></svg>
