<svg xmlns="http://www.w3.org/2000/svg" height="841.333" width="839.2"><path d="M314.745 830.672c0-.8-.116-1.488-.35-2.055-.232-.573-.552-1.013-.974-1.325a2.24 2.24 0 00-1.372-.458c-.793 0-1.466.333-2.02.983-.544.667-.824 1.624-.824 2.902 0 1.208.28 2.138.82 2.802.548.669 1.22 1.007 2.024 1.007.483 0 .931-.147 1.343-.443.401-.292.733-.728.98-1.306.252-.59.373-1.288.373-2.107zm-5.67-4.405v.369c.541-.699 1.109-1.219 1.692-1.547.589-.332 1.256-.493 1.996-.493.889 0 1.708.244 2.46.719.748.48 1.341 1.177 1.776 2.104.432.918.654 2.012.654 3.273 0 .925-.13 1.787-.381 2.555-.244.781-.593 1.441-1.03 1.963-.44.534-.96.938-1.555 1.215a4.333 4.333 0 01-1.924.427c-.83 0-1.522-.168-2.084-.516-.568-.348-1.099-.852-1.604-1.523v4.532c0 1.328-.467 1.988-1.391 1.988-.544 0-.907-.165-1.079-.507-.18-.347-.264-.849-.264-1.506v-13.032c0-.572.116-1.008.359-1.288.243-.281.572-.43.984-.43.413 0 .745.149 1.003.442.256.293.388.715.388 1.255M327.493 835.148v-.384a6.706 6.706 0 01-1.097 1.15c-.379.313-.8.538-1.245.691a4.906 4.906 0 01-1.551.226c-.699 0-1.324-.152-1.88-.452-.559-.3-.984-.72-1.29-1.25-.363-.643-.54-1.562-.54-2.761v-5.984c0-.607.133-1.057.394-1.356.263-.293.603-.445 1.035-.445.442 0 .794.152 1.062.456.266.298.4.75.4 1.345v4.835c0 .698.058 1.288.168 1.757.115.483.315.855.62 1.122.283.267.682.398 1.182.398.496 0 .957-.15 1.378-.452.436-.297.751-.69.951-1.176.164-.43.241-1.367.241-2.816v-3.668c0-.595.138-1.047.403-1.345.261-.304.616-.456 1.048-.456.43 0 .776.152 1.04.445.257.299.388.75.388 1.356v8.745c0 .576-.12 1.008-.379 1.29-.246.291-.568.433-.966.433-.394 0-.72-.154-.976-.443-.26-.305-.386-.718-.386-1.261M335.89 830.786c0 1.205.253 2.126.78 2.77.531.64 1.22.972 2.075.972.73 0 1.355-.332 1.882-.992.532-.663.793-1.604.793-2.833 0-.808-.112-1.493-.33-2.064-.222-.578-.534-1.02-.93-1.332a2.253 2.253 0 00-1.415-.473c-.556 0-1.041.158-1.47.473-.438.312-.774.765-1.022 1.362-.244.59-.364 1.295-.364 2.117zm-.143-8.974v4.612c.538-.592 1.096-1.04 1.658-1.359.567-.314 1.272-.47 2.102-.47.964 0 1.801.245 2.528.71.724.484 1.286 1.172 1.688 2.071.401.904.598 1.976.598 3.216 0 .915-.109 1.757-.332 2.517-.225.762-.545 1.424-.969 1.987-.427.556-.94.988-1.541 1.302a4.48 4.48 0 01-2.004.454c-.439 0-.86-.054-1.255-.166a3.352 3.352 0 01-1.005-.437 4.369 4.369 0 01-.704-.554 14.943 14.943 0 01-.764-.862v.296c0 .571-.136.998-.395 1.29-.263.291-.596.433-.993.433-.416 0-.736-.142-.984-.432-.243-.3-.363-.725-.363-1.29v-13.187c0-.61.116-1.068.35-1.383.243-.315.569-.474.997-.474.44 0 .785.153 1.022.454.243.299.366.72.366 1.272M346.36 835.017v-13.092c0-.609.13-1.064.384-1.374.263-.306.612-.465 1.045-.465.442 0 .795.153 1.064.465.26.3.404.761.404 1.374v13.092c0 .616-.144 1.076-.412 1.381-.273.3-.625.454-1.056.454-.421 0-.761-.157-1.03-.473-.27-.32-.399-.769-.399-1.362M355.137 826.3v8.717c0 .61-.142 1.067-.412 1.376-.277.302-.63.46-1.049.46a1.3 1.3 0 01-1.036-.47c-.264-.323-.399-.773-.399-1.366v-8.633c0-.595.135-1.047.399-1.345.268-.304.61-.456 1.036-.456.421 0 .772.152 1.05.456.269.298.411.718.411 1.261zm-1.436-3.13c-.397 0-.74-.124-1.033-.387-.28-.258-.427-.63-.427-1.098 0-.425.147-.778.443-1.057.287-.277.63-.408 1.017-.408.375 0 .71.12.999.372.29.247.437.62.437 1.093 0 .467-.146.831-.428 1.09-.281.261-.62.396-1.008.396M368.484 833.121c0 .371-.105.772-.315 1.195-.22.433-.55.839-.994 1.225-.44.387-.996.7-1.663.932-.673.243-1.428.358-2.267.358-1.79 0-3.184-.546-4.188-1.63-1.004-1.087-1.504-2.542-1.504-4.372 0-1.236.227-2.34.684-3.285a5.135 5.135 0 011.992-2.207c.866-.52 1.908-.777 3.116-.777.752 0 1.442.115 2.066.335.624.234 1.156.53 1.585.889.437.362.768.745.999 1.156.232.41.344.79.344 1.145a1.3 1.3 0 01-1.324 1.292.94.94 0 01-.6-.197c-.159-.128-.338-.325-.539-.621-.35-.558-.719-.982-1.11-1.267-.38-.277-.869-.425-1.458-.425-.861 0-1.552.357-2.07 1.05-.526.705-.785 1.651-.785 2.864 0 .566.072 1.092.202 1.568.136.478.33.878.582 1.218.258.336.559.589.927.757.355.18.755.268 1.181.268.583 0 1.076-.143 1.494-.419.408-.287.776-.714 1.092-1.284.178-.348.368-.61.573-.804.205-.194.463-.28.757-.28.351 0 .646.134.876.411.231.29.347.584.347.905M373.25 830.703c0 .814.127 1.51.369 2.086.242.579.573 1.004.994 1.296.43.296.891.443 1.386.443.516 0 .976-.14 1.398-.414.42-.278.752-.705 1.008-1.278.25-.567.375-1.281.375-2.133 0-.808-.125-1.498-.375-2.08-.256-.58-.593-1.019-1.018-1.33a2.352 2.352 0 00-1.404-.459c-.524 0-1 .158-1.418.473-.417.312-.741.765-.968 1.35-.229.592-.346 1.262-.346 2.046zm5.687 4.426v-.296c-.389.469-.772.84-1.149 1.131a4.242 4.242 0 01-1.232.668c-.435.144-.919.22-1.437.22a4.143 4.143 0 01-1.924-.454 4.547 4.547 0 01-1.53-1.313 6.065 6.065 0 01-.985-2.001 8.833 8.833 0 01-.335-2.492c0-1.885.442-3.363 1.323-4.412.89-1.058 2.05-1.584 3.484-1.584.836 0 1.543.155 2.115.459.568.288 1.128.75 1.67 1.369v-4.456c0-.617.122-1.088.356-1.403.239-.32.57-.479 1.011-.479.436 0 .772.147 1.013.44.238.286.359.718.359 1.286v13.317c0 .576-.132 1.008-.385 1.29a1.25 1.25 0 01-.987.433c-.388 0-.72-.142-.984-.443-.25-.299-.383-.718-.383-1.28M392.504 830.722c0-1.224-.26-2.185-.781-2.873-.519-.682-1.219-1.032-2.091-1.032-.568 0-1.06.159-1.5.466-.423.309-.759.76-.99 1.356-.24.593-.353 1.285-.353 2.083 0 .79.114 1.476.346 2.067.23.59.557 1.042.989 1.355.424.31.93.47 1.508.47.872 0 1.572-.343 2.09-1.031.522-.688.782-1.644.782-2.86zm2.904 0c0 .895-.137 1.726-.407 2.494a5.623 5.623 0 01-1.16 1.948c-.509.552-1.12.956-1.822 1.256-.714.29-1.51.432-2.387.432-.879 0-1.66-.142-2.368-.437a5.327 5.327 0 01-1.817-1.267 5.577 5.577 0 01-1.164-1.944c-.263-.75-.396-1.575-.396-2.485 0-.914.138-1.75.401-2.507a5.616 5.616 0 011.153-1.95 5.114 5.114 0 011.823-1.24c.716-.294 1.505-.44 2.368-.44.877 0 1.67.146 2.387.446a5.102 5.102 0 011.828 1.26 5.43 5.43 0 011.16 1.95c.269.746.401 1.58.401 2.484M407.627 828.227c-.215.516-.322 1.414-.322 2.712v4.01c0 .632-.137 1.11-.416 1.43-.273.316-.641.473-1.092.473-.436 0-.789-.157-1.057-.473-.272-.32-.41-.798-.41-1.43v-4.814c0-.758-.026-1.343-.08-1.77-.047-.416-.182-.76-.4-1.036-.214-.27-.565-.405-1.034-.405-.945 0-1.565.337-1.87 1.025-.3.673-.447 1.65-.447 2.916v4.084c0 .632-.136 1.11-.41 1.419-.273.327-.629.484-1.072.484-.442 0-.802-.157-1.078-.484-.284-.308-.415-.787-.415-1.413v-8.646c0-.566.121-1 .37-1.292.254-.295.58-.446.991-.446.395 0 .726.141.995.413.26.28.392.657.392 1.148v.29c.503-.633 1.041-1.09 1.608-1.383a4.105 4.105 0 011.908-.443c.732 0 1.35.155 1.877.459.526.293.951.754 1.287 1.366.49-.616 1.016-1.084 1.573-1.378a3.838 3.838 0 011.848-.447c.8 0 1.478.155 2.048.487.575.322.999.784 1.284 1.394.248.548.375 1.404.375 2.575v5.897c0 .632-.141 1.11-.412 1.43-.284.316-.64.473-1.096.473-.437 0-.797-.157-1.073-.484-.283-.308-.424-.787-.424-1.419v-5.077c0-.65-.024-1.171-.076-1.56a1.862 1.862 0 00-.43-.99c-.23-.262-.589-.398-1.062-.398-.378 0-.743.12-1.078.353a2.31 2.31 0 00-.802.95M424.01 830.781c-.43.163-1.042.338-1.853.517-.809.18-1.374.314-1.682.398-.31.09-.604.253-.89.494-.281.251-.425.6-.425 1.04 0 .465.17.854.5 1.172.33.322.768.484 1.303.484a3.28 3.28 0 001.588-.4c.484-.257.844-.6 1.062-1.013.262-.452.398-1.204.398-2.26zm.186 4.374c-.699.567-1.379.993-2.028 1.27-.653.291-1.39.427-2.197.427-.748 0-1.392-.154-1.955-.454a3.268 3.268 0 01-1.305-1.25 3.376 3.376 0 01-.458-1.704c0-.823.26-1.522.759-2.11.5-.58 1.187-.967 2.06-1.173.188-.041.645-.135 1.37-.29.731-.162 1.354-.303 1.877-.43a32.779 32.779 0 001.692-.467c-.04-.8-.195-1.382-.462-1.762-.272-.365-.84-.55-1.69-.55-.738 0-1.288.103-1.667.32-.37.213-.684.538-.95.967-.267.427-.449.704-.558.843-.116.14-.348.199-.707.199-.33 0-.608-.105-.838-.322a1.072 1.072 0 01-.364-.84c0-.529.184-1.046.546-1.541.36-.504.922-.916 1.683-1.245.76-.324 1.713-.483 2.855-.483 1.27 0 2.269.159 3 .468.725.31 1.233.804 1.533 1.487.304.68.456 1.574.456 2.695 0 .709 0 1.316-.005 1.807-.008.495-.008 1.045-.019 1.652 0 .562.095 1.162.273 1.77.175.617.267 1.013.267 1.188 0 .31-.14.594-.42.846a1.35 1.35 0 01-.945.38c-.295 0-.582-.143-.884-.433-.283-.293-.595-.715-.919-1.265M432.681 826.3v8.717c0 .61-.141 1.067-.413 1.376a1.364 1.364 0 01-1.047.46c-.425 0-.772-.158-1.034-.47-.27-.323-.399-.773-.399-1.366v-8.633c0-.595.13-1.047.399-1.345.262-.304.609-.456 1.034-.456.42 0 .772.152 1.047.456.272.298.413.718.413 1.261zm-1.434-3.13c-.398 0-.738-.124-1.03-.387-.284-.258-.429-.63-.429-1.098 0-.425.145-.778.447-1.057a1.408 1.408 0 011.012-.408c.374 0 .712.12.998.372.29.247.436.62.436 1.093 0 .467-.141.831-.425 1.09a1.441 1.441 0 01-1.01.396M438.301 826.252v.363c.504-.698 1.06-1.215 1.666-1.54.604-.324 1.29-.492 2.086-.492.755 0 1.438.168 2.044.522.595.343 1.05.832 1.346 1.463.189.372.309.772.366 1.196.052.428.091.975.091 1.636v5.617c0 .61-.143 1.067-.401 1.376a1.324 1.324 0 01-1.034.46c-.428 0-.777-.158-1.041-.474-.27-.32-.408-.769-.408-1.362v-5.024c0-1.002-.128-1.766-.388-2.292-.275-.524-.808-.786-1.601-.786a2.25 2.25 0 00-1.402.482c-.428.315-.737.759-.93 1.32-.144.447-.215 1.287-.215 2.527v3.773c0 .616-.137 1.076-.41 1.381-.274.3-.626.454-1.051.454-.416 0-.763-.157-1.031-.468-.273-.324-.404-.774-.404-1.367V826.3c0-.584.12-1.005.363-1.293.237-.285.572-.424.988-.424.252 0 .482.066.684.186.208.122.366.315.493.563.121.252.19.557.19.92M450.539 826.463l2.34 6.853 2.521-7.152c.201-.58.396-.979.584-1.227.195-.236.483-.354.868-.354.367 0 .681.129.947.388.252.254.382.552.382.896 0 .133-.028.285-.074.457-.043.18-.094.348-.158.507-.057.15-.121.33-.205.524l-2.772 7.189-.308.788c-.125.316-.26.582-.41.816-.155.22-.34.393-.56.52-.227.125-.5.184-.815.184-.41 0-.738-.095-.984-.29a1.852 1.852 0 01-.54-.64c-.115-.231-.31-.689-.591-1.378l-2.752-7.11c-.07-.173-.13-.351-.205-.531-.062-.171-.111-.35-.163-.542a2.121 2.121 0 01-.067-.472c0-.209.056-.416.178-.614.12-.207.294-.372.498-.5.218-.126.442-.192.694-.192.477 0 .804.14.988.434.18.283.384.767.604 1.446M462.373 829.743h5.247c-.068-1.031-.337-1.804-.805-2.314-.462-.51-1.072-.768-1.823-.768-.721 0-1.313.259-1.777.78-.463.514-.74 1.286-.842 2.302zm5.662 1.712h-5.662c0 .693.138 1.292.39 1.824.269.514.609.91 1.036 1.176.425.269.898.4 1.413.4.348 0 .661-.042.95-.126.286-.09.565-.221.838-.4.261-.178.505-.368.735-.582.221-.208.525-.48.877-.835.152-.139.363-.202.636-.202.301 0 .54.08.721.252.188.17.279.409.279.715 0 .274-.107.594-.31.962-.206.362-.511.716-.926 1.052-.415.337-.936.61-1.56.836-.62.22-1.336.325-2.155.325-1.861 0-3.306-.55-4.329-1.651-1.032-1.116-1.548-2.61-1.548-4.498 0-.903.127-1.729.381-2.486.256-.768.622-1.424 1.112-1.965a4.672 4.672 0 011.798-1.257c.72-.294 1.508-.435 2.38-.435 1.121 0 2.092.247 2.901.745.81.5 1.42 1.135 1.819 1.924.404.794.605 1.592.605 2.417 0 .758-.207 1.251-.621 1.473-.426.228-1.003.336-1.76.336M483.233 833.121c0 .371-.11.772-.326 1.195-.22.433-.542.839-.99 1.225-.434.387-.997.7-1.67.932-.667.243-1.431.358-2.266.358-1.79 0-3.182-.546-4.181-1.63-1.003-1.087-1.508-2.542-1.508-4.372 0-1.236.227-2.34.687-3.285.462-.946 1.12-1.687 1.992-2.207.868-.52 1.908-.777 3.116-.777.752 0 1.437.113 2.064.335.622.234 1.154.53 1.589.889.436.362.768.745.997 1.156.227.41.344.79.344 1.145 0 .359-.128.663-.394.916a1.27 1.27 0 01-.932.376.913.913 0 01-.594-.197c-.162-.128-.341-.325-.54-.621-.353-.558-.721-.982-1.102-1.267-.392-.277-.88-.425-1.474-.425-.85 0-1.544.357-2.064 1.05-.525.705-.785 1.651-.785 2.864 0 .566.07 1.092.201 1.568.135.478.332.878.584 1.218.256.336.562.589.926.757.349.18.749.268 1.18.268.577 0 1.084-.143 1.493-.419.41-.287.779-.714 1.099-1.284.173-.348.366-.61.572-.804.2-.194.452-.28.752-.28.348 0 .645.134.87.411.24.29.36.584.36.905M485.917 824.84h.322v-1.821c0-.478.01-.867.036-1.144.026-.275.089-.511.205-.712.11-.203.277-.372.49-.502.209-.127.446-.19.709-.19.361 0 .697.148.992.426.194.198.321.431.372.703.061.275.08.673.08 1.183v2.057h1.068c.409 0 .72.097.936.304.221.199.325.457.325.773 0 .407-.153.698-.468.854-.299.158-.741.244-1.313.244h-.548v5.56c0 .471.016.834.053 1.092.03.257.121.462.259.614.136.163.356.247.674.247.166 0 .391-.032.686-.1.285-.056.51-.087.677-.087.233 0 .445.098.63.288.186.193.28.436.28.726 0 .484-.246.855-.757 1.114-.522.257-1.245.383-2.197.383-.903 0-1.59-.157-2.059-.473a2.2 2.2 0 01-.916-1.32c-.146-.563-.214-1.308-.214-2.243v-5.801h-.388c-.412 0-.728-.1-.947-.31a1.031 1.031 0 01-.332-.788c0-.316.116-.574.344-.773.23-.207.567-.304 1.001-.304M501.363 830.722c0-1.224-.264-2.185-.779-2.873-.525-.682-1.219-1.032-2.097-1.032-.562 0-1.06.159-1.492.466-.428.309-.76.76-.991 1.356-.24.593-.353 1.285-.353 2.083 0 .79.113 1.476.346 2.067.232.59.558 1.042.982 1.355.426.31.926.47 1.508.47.878 0 1.572-.343 2.097-1.031.515-.688.779-1.644.779-2.86zm2.905 0c0 .895-.135 1.726-.41 2.494a5.509 5.509 0 01-1.162 1.948c-.507.552-1.117.956-1.823 1.256-.702.29-1.493.432-2.386.432-.875 0-1.666-.142-2.363-.437a5.303 5.303 0 01-1.815-1.267 5.568 5.568 0 01-1.16-1.944c-.269-.75-.398-1.575-.398-2.485 0-.914.129-1.75.398-2.507a5.598 5.598 0 011.155-1.95 5.104 5.104 0 011.82-1.24 6.202 6.202 0 012.363-.44c.878 0 1.672.146 2.386.446a5.092 5.092 0 011.835 1.26 5.513 5.513 0 011.163 1.95c.262.746.397 1.58.397 2.484M509.417 832.507v2.51c0 .616-.136 1.076-.406 1.381-.282.3-.634.454-1.052.454-.416 0-.764-.157-1.031-.459-.265-.31-.4-.766-.4-1.376v-8.402c0-1.358.468-2.032 1.41-2.032.473 0 .825.16 1.04.472.21.317.32.788.347 1.408.346-.62.703-1.091 1.066-1.408.361-.312.845-.472 1.452-.472.613 0 1.197.16 1.777.472.567.317.859.74.859 1.262 0 .373-.131.675-.372.912-.239.238-.504.363-.788.363-.107 0-.363-.072-.774-.21-.404-.137-.76-.205-1.077-.205-.42 0-.768.115-1.03.351-.267.236-.477.573-.626 1.03a7.178 7.178 0 00-.31 1.64 28.1 28.1 0 00-.085 2.309M524.827 832.912c0 .835-.188 1.543-.583 2.144-.393.592-.968 1.037-1.723 1.342-.765.3-1.682.454-2.776.454-1.034 0-1.926-.166-2.674-.493-.743-.33-1.288-.749-1.639-1.243-.352-.497-.537-.992-.537-1.497 0-.33.117-.614.348-.846.225-.242.51-.356.856-.356.305 0 .534.078.701.23.165.158.312.379.467.65.298.543.65.947 1.066 1.21.41.269.976.4 1.69.4.578 0 1.052-.138 1.424-.403.369-.268.565-.58.565-.921 0-.537-.201-.924-.58-1.162-.39-.252-1.017-.482-1.91-.7-.991-.261-1.805-.535-2.43-.812-.627-.292-1.13-.664-1.505-1.126-.371-.462-.559-1.035-.559-1.711 0-.612.173-1.186.519-1.715.346-.54.862-.973 1.533-1.292.673-.322 1.488-.482 2.445-.482.754 0 1.424.082 2.022.241.594.16 1.101.381 1.494.65.398.278.706.578.908.91.215.336.316.657.316.97 0 .347-.112.627-.337.858-.22.21-.54.325-.945.325-.299 0-.547-.085-.763-.268-.205-.173-.447-.44-.715-.788a2.657 2.657 0 00-.77-.71c-.303-.173-.702-.267-1.21-.267-.521 0-.961.116-1.304.352-.346.232-.521.52-.521.868 0 .32.127.579.379.781.258.202.601.368 1.03.504.438.132 1.03.296 1.783.49.897.227 1.635.494 2.201.814.568.319.999.688 1.291 1.126.303.43.443.92.443 1.473M528.116 836.852c-.44 0-.819-.142-1.133-.437-.322-.295-.479-.71-.479-1.24 0-.446.147-.834.452-1.154.297-.326.68-.485 1.124-.485.441 0 .825.159 1.128.479.323.314.483.709.483 1.16 0 .525-.16.935-.483 1.234-.303.301-.67.443-1.092.443M540.908 830.722c0-1.224-.263-2.185-.783-2.873-.521-.682-1.214-1.032-2.093-1.032-.56 0-1.055.159-1.485.466-.438.309-.767.76-.999 1.356-.23.593-.348 1.285-.348 2.083 0 .79.112 1.476.343 2.067.232.59.557 1.042.986 1.355.427.31.934.47 1.503.47.879 0 1.572-.343 2.093-1.031.52-.688.783-1.644.783-2.86zm2.905 0c0 .895-.129 1.726-.409 2.494a5.523 5.523 0 01-1.16 1.948 5.121 5.121 0 01-1.825 1.256c-.703.29-1.498.432-2.387.432-.872 0-1.66-.142-2.357-.437a5.235 5.235 0 01-1.814-1.267 5.496 5.496 0 01-1.172-1.944c-.262-.75-.393-1.575-.393-2.485 0-.914.13-1.75.397-2.507.28-.763.652-1.41 1.159-1.95a5 5 0 011.823-1.24c.713-.294 1.496-.44 2.357-.44.879 0 1.672.146 2.387.446a5.036 5.036 0 011.834 1.26 5.598 5.598 0 011.166 1.95c.265.746.394 1.58.394 2.484M548.965 832.507v2.51c0 .616-.137 1.076-.412 1.381-.272.3-.622.454-1.044.454a1.33 1.33 0 01-1.036-.459c-.269-.31-.397-.766-.397-1.376v-8.402c0-1.358.472-2.032 1.407-2.032.484 0 .825.16 1.036.472.209.317.336.788.357 1.408.34-.62.693-1.091 1.055-1.408.37-.312.857-.472 1.456-.472.621 0 1.208.16 1.776.472.568.317.862.74.862 1.262 0 .373-.125.675-.368.912-.246.238-.505.363-.793.363-.104 0-.359-.072-.763-.21-.409-.137-.765-.205-1.082-.205-.419 0-.767.115-1.039.351-.264.236-.475.573-.621 1.03a7.635 7.635 0 00-.311 1.64 28.248 28.248 0 00-.083 2.309M557.32 830.617c0 1.226.253 2.15.767 2.781.51.623 1.177.943 1.982.943.478 0 .94-.145 1.366-.41.425-.275.777-.675 1.045-1.216.27-.546.4-1.203.4-1.975 0-1.23-.264-2.185-.779-2.876-.518-.687-1.204-1.03-2.046-1.03-.827 0-1.49.333-1.983.983-.504.662-.752 1.595-.752 2.8zm8.381-3.824v8.771c0 1.003-.108 1.87-.309 2.584-.205.732-.537 1.325-.983 1.8-.452.467-1.052.819-1.776 1.052-.73.219-1.638.333-2.728.333-.998 0-1.89-.14-2.669-.428-.788-.302-1.393-.67-1.813-1.137-.423-.456-.64-.93-.64-1.417 0-.378.12-.675.361-.907.241-.231.532-.35.868-.35.425 0 .793.2 1.116.587.156.207.317.404.481.605.162.205.348.38.552.52.2.147.448.253.73.326.274.068.606.104.973.104.745 0 1.335-.114 1.744-.33.41-.214.699-.52.868-.903.163-.395.267-.81.283-1.256.037-.451.053-1.167.073-2.155-.447.641-.965 1.141-1.544 1.477-.579.34-1.277.504-2.076.504-.979 0-1.823-.253-2.544-.773-.725-.514-1.283-1.233-1.668-2.17-.387-.92-.584-1.995-.584-3.215 0-.91.112-1.73.355-2.46.232-.726.569-1.34 1.016-1.846.429-.497.94-.874 1.513-1.134a4.59 4.59 0 011.885-.38c.815 0 1.53.162 2.128.494.604.328 1.158.848 1.671 1.547v-.41c0-.528.13-.926.373-1.226.247-.281.567-.43.952-.43.563 0 .938.187 1.12.574.179.379.272.93.272 1.65M440.317 797.388h4.295c-.305 2.319-1.25 4.124-2.832 5.419-1.463 1.277-3.23 1.902-5.292 1.902-2.801 0-5.033-.98-6.705-2.946-1.584-1.87-2.375-4.283-2.375-7.231 0-3.016.787-5.434 2.353-7.263 1.56-1.817 3.778-2.733 6.632-2.733 2.127 0 3.924.573 5.387 1.713 1.55 1.236 2.495 2.97 2.832 5.187h-4.295c-.366-1.935-1.556-2.903-3.566-2.903-3.318 0-4.976 1.968-4.976 5.898 0 1.845.424 3.35 1.281 4.52.852 1.177 2.055 1.766 3.607 1.766 2.309 0 3.529-1.11 3.654-3.329zm-16.893-2.703c0 3.84 1.217 7.095 3.65 9.736 2.433 2.654 5.414 3.979 8.953 3.979 3.518 0 6.502-1.325 8.938-3.979 2.432-2.64 3.646-5.896 3.646-9.736 0-3.837-1.214-7.085-3.646-9.733-2.436-2.655-5.42-3.98-8.938-3.98-3.539 0-6.52 1.325-8.952 3.98-2.434 2.648-3.651 5.896-3.651 9.733zm-4.357 0c0-4.888 1.653-9.056 4.965-12.525 3.313-3.457 7.31-5.185 11.995-5.185 4.676 0 8.665 1.728 11.985 5.185 3.312 3.47 4.972 7.637 4.972 12.525 0 4.886-1.66 9.063-4.972 12.527-3.32 3.459-7.31 5.193-11.985 5.193-4.683 0-8.682-1.734-11.994-5.193-3.313-3.464-4.966-7.641-4.966-12.527" fill="#257737"/><path d="M425.93 805.793l2.47 2.098 18.187-23.355-2.47-2.099-18.188 23.356" fill="#257737"/><path d="M390.036 41.11c11.321 0 20.557-9.235 20.557-20.555C410.593 9.233 401.357 0 390.036 0c-11.32 0-20.552 9.233-20.552 20.555 0 11.32 9.232 20.554 20.552 20.554" fill="#2e2825" fill-rule="evenodd"/><path d="M438.388 53.217c19.975 0 36.267-10.665 36.267-23.742 0-13.08-16.292-23.744-36.267-23.744s-36.265 10.664-36.265 23.744c0 13.077 16.29 23.742 36.265 23.742" fill="#2e2825" fill-rule="evenodd"/><path d="M475.25 43.175c7.87 0 14.29-6.022 14.29-13.406 0-7.385-6.42-13.408-14.29-13.408-7.88 0-14.298 6.023-14.298 13.408 0 7.384 6.419 13.406 14.297 13.406M406.612 89.01c18.865 0 34.256-16.395 34.256-36.502 0-20.103-15.39-36.501-34.256-36.501-18.867 0-34.259 16.398-34.259 36.501 0 20.107 15.392 36.503 34.259 36.503M620.692 621.35h-47.177l-12.902 90.215h47.179l12.9-90.214" fill="#2e2825" fill-rule="evenodd"/><path d="M637.264 666.044h-37.035l-6.509 45.521h76.148l.917-6.414c3.078-21.538-11.978-39.107-33.521-39.107M221.184 621.35h47.179l-12.903 90.215h-47.176l12.9-90.214" fill="#2e2825" fill-rule="evenodd"/><path d="M191.828 666.044h37.035l-6.508 45.521h-76.147l.916-6.414c3.08-21.538 23.161-39.107 44.704-39.107" fill="#2e2825" fill-rule="evenodd"/><path d="M392.932 394.724l-15.524 4.773c-71.267 21.923-134.043 88.899-163.72 174.675a171.31 171.31 0 00-5.28 18.592c-2.643 11.808-.776 22.36 5.501 31.09 6.279 8.734 15.218 13.22 26.35 13.22h11.07c15.422 0 29.908-9.08 38.382-24.05 69.59-122.94 230.4-122.94 264.832 0 4.193 14.97 16.085 24.05 31.506 24.05h11.071c11.13 0 21.355-4.486 30.13-13.22 8.775-8.73 13.66-19.282 14.393-31.09.386-6.25.4-12.464.033-18.592-5.148-85.776-48.772-152.752-113.768-174.675l-14.157-4.773-58.071-16.344-62.748 16.344" fill="#257737" fill-rule="evenodd"/><path d="M309.053 334.335c36.014 6.166 65.208 26.918 65.208 46.352 0 19.429-29.194 30.181-65.208 24.016-36.014-6.171-65.209-26.923-65.209-46.354 0-19.43 29.195-30.185 65.21-24.014" fill="#f28f61" fill-rule="evenodd"/><path d="M33.335 327.63h137.974v-18.902H33.335v18.901M70.9 338.735h102.3v-5.432H70.9v5.432" fill="#2e2825" fill-rule="evenodd"/><path d="M60.385 341.448h23.862v-10.865H60.385v10.865M100.196 340.98h11.34v-21.619h-11.34v21.619M137.17 340.98h11.342v-21.619h-11.341v21.619M42.075 316.29h12.993v-26.462H42.075v26.463" fill="#2e2825" fill-rule="evenodd"/><path d="M263.708 306.141h-99.25v46.295l99.635 8.507 43.307-15.828-43.692-38.974" fill="#a33a1f" fill-rule="evenodd"/><path d="M307.4 345.115h74.19V219.423H307.4v125.692" fill="#f28f61" fill-rule="evenodd"/><path d="M361.768 265.017c33.184 0 60.248-22.817 60.248-50.796 0-27.98-27.064-50.797-60.248-50.797-33.181 0-60.247 22.817-60.247 50.797 0 27.979 27.066 50.796 60.247 50.796" fill="#f28f61" fill-rule="evenodd"/><path d="M361.768 163.424c-30.443 0-55.607 19.041-59.668 43.768 19.259-18.767 105.379 19.41 99.592 45.068 12.464-9.31 20.324-22.9 20.324-38.039 0-28.053-26.975-50.797-60.248-50.797M378.307 395.905H526.68V252.26H378.307v143.645" fill="#257737" fill-rule="evenodd"/><path d="M437.845 342.983c62.982 0 114.35-41.019 114.35-91.314 0-50.292-51.368-91.312-114.35-91.312-62.981 0-114.349 41.02-114.349 91.312 0 50.295 51.368 91.314 114.35 91.314" fill="#2e9a3f" fill-rule="evenodd"/><path d="M437.845 160.357c23.874 0 46.035 5.846 64.374 15.838-10.654 7.777-35.466 13.228-64.374 13.228-28.906 0-53.717-5.451-64.372-13.228 18.339-9.992 40.5-15.838 64.372-15.838" fill="#f28f61" fill-rule="evenodd"/><path d="M263.708 362.37h277.844v-56.229H263.708v56.23" fill="#2e2825" fill-rule="evenodd"/><path d="M559.89 311.799c22.309 0 40.503-24.952 40.503-55.547 0-30.59-18.194-55.545-40.504-55.545-22.306 0-40.506 24.954-40.506 55.545 0 30.595 18.2 55.547 40.506 55.547" fill="#f28f61" fill-rule="evenodd"/><path d="M521.01 338.259c18.738 0 34.02-20.591 34.02-45.835s-15.282-45.837-34.02-45.837c-18.74 0-34.023 20.593-34.023 45.837 0 25.244 15.282 45.835 34.022 45.835" fill="#f28f61" fill-rule="evenodd"/><path d="M515.576 382.637h72.295V275.648h-72.295v106.99" fill="#f28f61" fill-rule="evenodd"/><path d="M576.884 393.779c9.568 0 17.368-7.802 17.368-17.366 0-9.565-7.8-17.365-17.368-17.365-9.563 0-17.364 7.8-17.364 17.365 0 9.564 7.801 17.366 17.364 17.366" fill="#f28f61" fill-rule="evenodd"/><path d="M518.405 341.707c35.752-3.471 64.739 3.132 64.739 14.744 0 11.613-28.987 23.838-64.739 27.309-35.757 3.47-64.744-3.13-64.744-14.748 0-11.61 28.987-23.835 64.744-27.305" fill="#f28f61" fill-rule="evenodd"/><path d="M496.984 401.579c44.16 0 80.175-9.444 80.175-21.03 0-11.58-36.015-21.025-80.175-21.025-44.157 0-80.172 9.445-80.172 21.025 0 11.586 36.015 21.03 80.172 21.03" fill="#f28f61" fill-rule="evenodd"/><path d="M341.46 360.719h85.259l5.721 23.902h-73.31c-6.574 0-13.24-5.377-14.814-11.952l-2.856-11.95" fill="#2e2825" fill-rule="evenodd"/><path d="M414.33 397.087H530.1v-34.714H414.33v34.714" fill="#f28f61" fill-rule="evenodd"/><path d="M383.056 362.373h56.668v24.982c0 13.737-11.24 24.974-24.979 24.974h-22.928c-4.817 0-8.761-3.941-8.761-8.761v-41.195" fill="#f28f61" fill-rule="evenodd"/><path d="M356.79 362.373h52.215l3.504 14.638h-44.896c-4.026 0-8.106-3.292-9.072-7.319l-1.75-7.319M529.75 265.017c33.185 0 60.246-22.817 60.246-50.796 0-27.98-27.061-50.797-60.245-50.797-33.182 0-60.246 22.817-60.246 50.797 0 27.979 27.064 50.796 60.246 50.796" fill="#f28f61" fill-rule="evenodd"/><path d="M529.75 163.424c30.445 0 55.611 19.041 59.671 43.768-19.257-18.767-105.378 19.41-99.596 45.068-12.462-9.31-20.32-22.9-20.32-38.039 0-28.053 26.972-50.797 60.246-50.797" fill="#257737" fill-rule="evenodd"/><path d="M271.841 372.877h73.952v-18.194h-73.952v18.194M315.903 316.764h144.12v-20.323h-144.12v20.323" fill="#2e2825" fill-rule="evenodd"/><path d="M326.299 302.588h11.696v-10.397h-11.696v10.397M342.43 292.19h11.697v10.398H342.43v-10.397M358.567 292.19h11.693v10.398h-11.693v-10.397M374.697 292.19h11.698v10.398h-11.698v-10.397M390.833 292.19h11.694v10.398h-11.694v-10.397M406.965 292.19h11.698v10.398h-11.698v-10.397M423.1 292.19h11.693v10.398H423.1v-10.397M439.233 302.588h11.694v-10.397h-11.694v10.397M339.715 371.221l.021 8.558c.052 21.941-4.639 42.846-13.804 62.148-9.043 19.045-22.37 36.438-39.71 51.608l-41.018-46.878c10.77-9.425 18.935-19.988 24.327-31.346 5.273-11.104 7.972-23.06 7.941-35.532l-.023-8.558h62.266M200.841 319.361h39.456c3.379 0 6.143 2.762 6.143 6.143 0 3.38-2.764 6.143-6.143 6.143h-39.456c-3.378 0-6.142-2.763-6.142-6.143 0-3.381 2.764-6.143 6.142-6.143" fill="#2e2825" fill-rule="evenodd"/><path d="M238.972 331.604c20.552 2.895 37.213 18.939 37.213 35.84 0 16.893-16.661 28.247-37.213 25.35-20.552-2.893-37.21-18.94-37.21-35.835 0-16.899 16.658-28.25 37.21-25.355M403.825 178.552h68.04v-73.241h-68.04v73.241" fill="#f28f61" fill-rule="evenodd"/><path d="M389.127 36.21h95.094l-11.409 63.83c-4.676 26.153-29.9 47.548-56.05 47.548h-.002c-26.15 0-43.72-21.395-39.047-47.548l11.414-63.83" fill="#f5a682" fill-rule="evenodd"/><path d="M453.925 104.603c12.916 0 23.451-13.798 23.451-30.715 0-16.915-10.535-30.713-23.45-30.713-12.918 0-23.451 13.798-23.451 30.713 0 16.917 10.533 30.715 23.45 30.715" fill="#2e2825" fill-rule="evenodd"/><path d="M477.965 140.87c13.532 0 24.568-13.426 24.568-29.887 0-16.459-11.036-29.886-24.568-29.886-13.536 0-24.572 13.427-24.572 29.886 0 16.461 11.036 29.886 24.572 29.886" fill="#2e2825" fill-rule="evenodd"/><path d="M371.41 56.88h118.13V29.472H371.41V56.88" fill="#ea3920" fill-rule="evenodd"/><path d="M465.207 104.603h24.336V34.668h-24.336v69.935" fill="#ea3920" fill-rule="evenodd"/><path d="M453.393 83.341h31.426v-52.45h-31.426v52.45" fill="#ea3920" fill-rule="evenodd"/><path d="M441.057 107.828c6.87 0 12.472-8.076 12.472-17.973 0-9.898-5.602-17.972-12.472-17.972-6.872 0-12.473 8.074-12.473 17.972 0 9.897 5.601 17.973 12.473 17.973M572.945 274.668c10.056 0 18.256-11.248 18.256-25.035 0-13.788-8.2-25.036-18.256-25.036-10.056 0-18.257 11.248-18.257 25.036 0 13.787 8.201 25.035 18.257 25.035M475.159 358.564c0-5.413 11.209-9.797 25.036-9.797 13.828 0 25.038 4.384 25.038 9.797 0 5.41-11.21 9.795-25.038 9.795-13.827 0-25.036-4.386-25.036-9.795" fill="#f5a682" fill-rule="evenodd"/><path d="M419.6 736.959c231.108 0 419.6-10.614 419.6-23.627 0-13.015-188.492-23.627-419.6-23.627-231.105 0-419.6 10.612-419.6 23.627 0 13.013 188.495 23.627 419.6 23.627" fill="#2e2825" fill-rule="evenodd"/></svg>